<svg width="60" height="60" viewBox="0 0 60 60" fill="none" xmlns="http://www.w3.org/2000/svg">
<rect x="1" y="1" width="58" height="58" rx="7" fill="white"/>
<rect x="1" y="1" width="58" height="58" rx="7" stroke="#4DECFF" stroke-width="2"/>
<g clip-path="url(#clip0_5_8021)">
<path fill-rule="evenodd" clip-rule="evenodd" d="M40.3693 19.9067C40.6988 19.768 41.0594 19.7202 41.4137 19.7682C41.7679 19.8162 42.1029 19.9582 42.3836 20.1796C42.6643 20.4009 42.8805 20.6935 43.0098 21.0268C43.1391 21.3601 43.1767 21.7219 43.1187 22.0747L40.0946 40.4173C39.8013 42.1867 37.86 43.2013 36.2373 42.32C34.88 41.5827 32.864 40.4467 31.0507 39.2613C30.144 38.668 27.3667 36.768 27.708 35.416C28.0013 34.26 32.668 29.916 35.3347 27.3333C36.3813 26.3187 35.904 25.7333 34.668 26.6667C31.5987 28.984 26.6707 32.508 25.0413 33.5C23.604 34.3747 22.8547 34.524 21.9587 34.3747C20.324 34.1027 18.808 33.6813 17.5707 33.168C15.8987 32.4747 15.98 30.176 17.5693 29.5067L40.3693 19.9067Z" fill="#3B3B3B"/>
</g>
<defs>
<clipPath id="clip0_5_8021">
<rect width="32" height="32" fill="white" transform="translate(14 14)"/>
</clipPath>
</defs>
</svg>
