<svg width="60" height="60" viewBox="0 0 60 60" fill="none" xmlns="http://www.w3.org/2000/svg">
<rect x="1" y="1" width="58" height="58" rx="7" fill="white"/>
<rect x="1" y="1" width="58" height="58" rx="7" stroke="#4DECFF" stroke-width="2"/>
<path d="M43.9467 22C42.92 22.4667 41.8133 22.7733 40.6667 22.92C41.84 22.2133 42.7467 21.0933 43.1733 19.7467C42.0667 20.4133 40.84 20.88 39.5467 21.1467C38.4933 20 37.0133 19.3333 35.3333 19.3333C32.2 19.3333 29.64 21.8933 29.64 25.0533C29.64 25.5067 29.6933 25.9467 29.7867 26.36C25.04 26.12 20.8133 23.84 18 20.3867C17.5067 21.2267 17.2267 22.2133 17.2267 23.2533C17.2267 25.24 18.2267 27 19.7733 28C18.8267 28 17.9467 27.7333 17.1733 27.3333V27.3733C17.1733 30.1467 19.1467 32.4667 21.76 32.9867C20.921 33.2163 20.0401 33.2482 19.1867 33.08C19.5488 34.2166 20.2581 35.2112 21.2147 35.9239C22.1713 36.6366 23.3273 37.0316 24.52 37.0533C22.4982 38.6539 19.992 39.5191 17.4133 39.5067C16.96 39.5067 16.5067 39.48 16.0533 39.4267C18.5867 41.0533 21.6 42 24.8267 42C35.3333 42 41.1067 33.28 41.1067 25.72C41.1067 25.4667 41.1067 25.2267 41.0933 24.9733C42.2133 24.1733 43.1733 23.16 43.9467 22Z" fill="#3B3B3B"/>
</svg>
