<svg width="158" height="152" viewBox="0 0 158 152" fill="none" xmlns="http://www.w3.org/2000/svg">
<mask id="mask0_4_8007" style="mask-type:luminance" maskUnits="userSpaceOnUse" x="28" y="20" width="73" height="65">
<path d="M40.3757 84.4614C36.3943 80.184 32.4143 75.9067 28.4357 71.6294C33.777 63.6747 40.6063 55.5227 48.7103 47.7133C61.6383 35.256 75.617 25.7814 88.309 20.1747C92.289 24.4521 96.269 28.7294 100.25 33.0067C87.5583 38.6147 73.5783 48.088 60.6517 60.5467C52.5463 68.3547 45.717 76.508 40.3757 84.4614Z" fill="white"/>
</mask>
<g mask="url(#mask0_4_8007)">
<path d="M90.229 19.352L102.17 32.184C101.281 32.5533 100.385 32.9426 99.4837 33.3493L87.5437 20.5173C88.445 20.1093 89.341 19.7213 90.229 19.352Z" fill="#FAD01B"/>
<path d="M87.5436 20.5174L99.4836 33.3493C98.6903 33.708 97.8916 34.0827 97.0903 34.4707L85.1503 21.6374C85.9516 21.2494 86.7503 20.876 87.5436 20.5174Z" fill="#F9D11A"/>
<path d="M85.1503 21.6373L97.0903 34.4707C96.273 34.8667 95.4516 35.276 94.6276 35.7027L82.6863 22.8694C83.5116 22.4427 84.3329 22.0333 85.1503 21.6373Z" fill="#F9D21A"/>
<path d="M82.6863 22.8694L94.6276 35.7027C93.7943 36.1321 92.9557 36.5774 92.1157 37.0374L80.1743 24.2054C81.0156 23.7441 81.853 23.3001 82.6863 22.8694Z" fill="#F9D41A"/>
<path d="M80.1744 24.2054L92.1157 37.0374C91.3264 37.4694 90.537 37.9147 89.7424 38.3721L77.8024 25.54C78.5957 25.0814 79.3864 24.6374 80.1744 24.2054Z" fill="#F9D51A"/>
<path d="M77.8023 25.54L89.7423 38.3721C88.9557 38.8254 88.1663 39.2934 87.377 39.7734L75.4357 26.94C76.2263 26.46 77.0157 25.9934 77.8023 25.54Z" fill="#F8D61A"/>
<path d="M75.4357 26.94L87.377 39.7734C86.6423 40.2187 85.9063 40.6747 85.1677 41.1427L73.2277 28.3094C73.965 27.8427 74.7023 27.3854 75.4357 26.94Z" fill="#F8D81A"/>
<path d="M73.2276 28.3094L85.1676 41.1427C84.4316 41.6094 83.6929 42.088 82.9529 42.576L71.0116 29.744C71.7516 29.2547 72.4916 28.7761 73.2276 28.3094Z" fill="#F7D91A"/>
<path d="M71.0117 29.744L82.953 42.576C82.257 43.036 81.5584 43.5067 80.861 43.9854L68.921 31.1534C69.6184 30.6734 70.3157 30.204 71.0117 29.744Z" fill="#F7DA1B"/>
<path d="M68.921 31.1534L80.861 43.9854C80.1636 44.4654 79.4663 44.9534 78.769 45.4507L66.8263 32.6174C67.525 32.1201 68.2223 31.6321 68.921 31.1534Z" fill="#F7DB1B"/>
<path d="M66.8262 32.6174L78.7689 45.4507C78.0823 45.94 77.3956 46.4374 76.7103 46.9454L64.7689 34.112C65.4556 33.604 66.1422 33.1067 66.8262 32.6174Z" fill="#F7DC1B"/>
<path d="M64.769 34.112L76.7103 46.9454C76.0263 47.4494 75.3423 47.964 74.6596 48.4854L62.7196 35.6534C63.4023 35.1307 64.0863 34.6174 64.769 34.112Z" fill="#F6DE1C"/>
<path d="M62.7196 35.6534L74.6596 48.4853C73.9543 49.0253 73.2503 49.5747 72.5463 50.132L60.605 37.3001C61.3103 36.7414 62.0143 36.192 62.7196 35.6534Z" fill="#F6DF1C"/>
<path d="M60.6049 37.3001L72.5463 50.132C71.8303 50.7 71.1143 51.2761 70.4009 51.8641L58.4609 39.0307C59.1743 38.4441 59.8889 37.8667 60.6049 37.3001Z" fill="#F6E11C"/>
<path d="M58.461 39.0307L70.401 51.864C69.6077 52.5147 68.8183 53.176 68.029 53.8493L56.089 41.0173C56.8783 40.344 57.6677 39.6814 58.461 39.0307Z" fill="#F6E21C"/>
<path d="M56.0889 41.0174L68.0289 53.8493C67.1782 54.576 66.3302 55.3147 65.4876 56.0667L53.5463 43.2334C54.3903 42.4827 55.2382 41.744 56.0889 41.0174Z" fill="#F6E31C"/>
<path d="M53.5464 43.2334L65.4877 56.0667C64.305 57.1187 63.129 58.1947 61.961 59.2974L50.021 46.4641C51.189 45.3627 52.365 44.2854 53.5464 43.2334Z" fill="#F5E41C"/>
<path d="M50.021 46.464L61.961 59.2973C61.5237 59.7093 61.0863 60.1267 60.6517 60.5467C57.1984 63.8734 53.9757 67.264 51.001 70.6747L39.0597 57.8427C42.0357 54.432 45.257 51.0413 48.7104 47.7133C49.1464 47.2933 49.5824 46.8774 50.021 46.464Z" fill="#F6EC30"/>
<path d="M39.0596 57.8427L51.0009 70.6747C49.9356 71.8973 48.9009 73.1214 47.8996 74.348L35.9596 61.5147C36.9609 60.2894 37.9943 59.064 39.0596 57.8427Z" fill="#F5E41C"/>
<path d="M35.9597 61.5147L47.8997 74.3481C47.1264 75.2947 46.373 76.2427 45.637 77.1894L33.697 64.3561C34.4317 63.4094 35.1864 62.4614 35.9597 61.5147Z" fill="#F6E31C"/>
<path d="M33.6969 64.3561L45.6369 77.1894C44.9916 78.0227 44.3596 78.856 43.7436 79.688L31.8036 66.8561C32.4196 66.0241 33.0489 65.1907 33.6969 64.3561Z" fill="#F6E21C"/>
<path d="M31.8036 66.856L43.7437 79.688C43.145 80.4987 42.5596 81.3067 41.9916 82.1147L30.0503 69.2814C30.6196 68.4747 31.205 67.6654 31.8036 66.856Z" fill="#F6E11C"/>
<path d="M30.0503 69.2814L41.9917 82.1147C41.445 82.8894 40.913 83.6627 40.3943 84.4333L28.453 71.6C28.9717 70.8294 29.5037 70.056 30.0503 69.2814Z" fill="#F6DF1C"/>
<path d="M28.453 71.6L40.3943 84.4333C39.873 85.208 39.3663 85.9813 38.8743 86.752L26.933 73.92C27.4263 73.1493 27.933 72.376 28.453 71.6Z" fill="#F6DE1C"/>
</g>
<mask id="mask1_4_8007" style="mask-type:luminance" maskUnits="userSpaceOnUse" x="15" y="71" width="26" height="61">
<path d="M40.3756 84.4614C27.1183 104.196 23.021 122.701 31.3543 131.659L19.4143 118.827C11.081 109.869 15.1783 91.364 28.4356 71.6294C32.4143 75.9067 36.3943 80.184 40.3756 84.4614Z" fill="white"/>
</mask>
<g mask="url(#mask1_4_8007)">
<path d="M28.453 71.6L40.3943 84.4333C39.873 85.208 39.3663 85.9813 38.8743 86.752L26.933 73.92C27.4263 73.1493 27.933 72.376 28.453 71.6Z" fill="#F6DE1C"/>
<path d="M26.933 73.92L38.8744 86.752C38.3744 87.536 37.8877 88.316 37.4184 89.0933L25.4771 76.26C25.9477 75.4827 26.433 74.7027 26.933 73.92Z" fill="#F7DC1B"/>
<path d="M25.477 76.26L37.4183 89.0934C36.937 89.8854 36.4743 90.6747 36.0263 91.46L24.085 78.628C24.5343 77.8427 24.997 77.0534 25.477 76.26Z" fill="#F7DB1B"/>
<path d="M24.085 78.628L36.0263 91.46C35.5676 92.264 35.125 93.064 34.701 93.86L22.7596 81.028C23.185 80.232 23.6263 79.432 24.085 78.628Z" fill="#F7DA1B"/>
<path d="M22.7596 81.028L34.701 93.86C34.2623 94.6787 33.8423 95.4934 33.4396 96.3014L21.4996 83.4694C21.901 82.66 22.3223 81.8454 22.7596 81.028Z" fill="#F7D91A"/>
<path d="M21.4996 83.4694L33.4396 96.3014C33.0383 97.112 32.6529 97.9174 32.2849 98.7174L20.345 85.8854C20.7116 85.0854 21.097 84.28 21.4996 83.4694Z" fill="#F8D81A"/>
<path d="M20.345 85.8854L32.285 98.7174C31.9584 99.432 31.645 100.143 31.3464 100.848L19.4064 88.0147C19.705 87.3107 20.017 86.6 20.345 85.8854Z" fill="#F8D61A"/>
<path d="M19.4064 88.0147L31.3464 100.848C31.0317 101.593 30.7317 102.332 30.4503 103.065L18.509 90.232C18.7917 89.5 19.0904 88.76 19.4064 88.0147Z" fill="#F9D51A"/>
<path d="M18.509 90.232L30.4503 103.065C30.105 103.963 29.785 104.851 29.4916 105.727L17.5503 92.8947C17.845 92.0174 18.1637 91.1307 18.509 90.232Z" fill="#F9D41A"/>
<path d="M17.5503 92.8947L29.4916 105.727C29.201 106.592 28.9356 107.445 28.697 108.287L16.7556 95.4547C16.9943 94.612 17.2609 93.7587 17.5503 92.8947Z" fill="#F9D21A"/>
<path d="M16.7557 95.4547L28.697 108.287C28.457 109.125 28.245 109.952 28.0557 110.768L16.1157 97.9347C16.3037 97.12 16.517 96.2934 16.7557 95.4547Z" fill="#F9D11A"/>
<path d="M16.1157 97.9347L28.0557 110.768C27.869 111.583 27.7064 112.387 27.5677 113.176L15.6277 100.343C15.765 99.5534 15.9277 98.7507 16.1157 97.9347Z" fill="#FAD01B"/>
<path d="M15.6276 100.343L27.5676 113.176C27.429 113.981 27.317 114.772 27.2303 115.548L15.2903 102.716C15.3756 101.94 15.489 101.148 15.6276 100.343Z" fill="#FACF1B"/>
<path d="M15.2904 102.716L27.2304 115.548C27.1437 116.343 27.085 117.12 27.0544 117.883L15.1144 105.051C15.145 104.288 15.2037 103.509 15.2904 102.716Z" fill="#FACD1A"/>
<path d="M15.1144 105.051L27.0544 117.883C27.025 118.668 27.025 119.436 27.0557 120.185L15.1157 107.352C15.0851 106.604 15.0837 105.835 15.1144 105.051Z" fill="#FACC1A"/>
<path d="M15.1157 107.352L27.0557 120.185C27.0904 120.995 27.1597 121.781 27.269 122.545L15.3264 109.712C15.2197 108.948 15.1504 108.161 15.1157 107.352Z" fill="#FACB1A"/>
<path d="M15.3263 109.712L27.269 122.545C27.3836 123.376 27.5463 124.179 27.7516 124.952L15.8103 112.12C15.605 111.347 15.4436 110.543 15.3263 109.712Z" fill="#FAC91A"/>
<path d="M15.8103 112.12L27.7516 124.952C27.9863 125.835 28.277 126.677 28.629 127.479L16.6876 114.645C16.3369 113.844 16.045 113.001 15.8103 112.12Z" fill="#FAC81A"/>
<path d="M16.6876 114.645L28.629 127.479C29.0663 128.476 29.5956 129.409 30.217 130.273L18.277 117.44C17.6543 116.577 17.125 115.643 16.6876 114.645Z" fill="#FBC61A"/>
<path d="M18.277 117.44L30.217 130.273C30.5663 130.757 30.9463 131.22 31.3556 131.66L19.4143 118.827C19.005 118.388 18.6263 117.924 18.277 117.44Z" fill="#FBC51A"/>
</g>
<mask id="mask2_4_8007" style="mask-type:luminance" maskUnits="userSpaceOnUse" x="88" y="14" width="50" height="20">
<path d="M100.25 33.0067C96.2689 28.7294 92.289 24.4521 88.309 20.1747C104.017 13.2347 117.752 12.2187 125.077 18.8027C125.4 19.0934 125.709 19.3947 126 19.7094L137.941 32.5427C137.649 32.228 137.341 31.9254 137.017 31.6361C129.692 25.0521 115.957 26.068 100.25 33.0067Z" fill="white"/>
</mask>
<g mask="url(#mask2_4_8007)">
<path d="M126 19.7093L137.941 32.5427C137.649 32.228 137.341 31.9254 137.017 31.636C134.049 28.968 130.03 27.548 125.254 27.264L113.314 14.432C118.09 14.716 122.109 16.136 125.077 18.8027C125.4 19.0934 125.709 19.3947 126 19.7093Z" fill="#FBC51A"/>
<path d="M113.314 14.432L125.254 27.2641C123.897 27.1841 122.481 27.1947 121.008 27.2947L109.068 14.4614C110.54 14.3614 111.957 14.3507 113.314 14.432Z" fill="#FBC61A"/>
<path d="M109.068 14.4613L121.008 27.2947C119.846 27.3733 118.652 27.508 117.426 27.696L105.485 14.864C106.712 14.6747 107.906 14.5413 109.068 14.4613Z" fill="#FAC81A"/>
<path d="M105.485 14.8641L117.426 27.6961C116.357 27.8614 115.266 28.0654 114.154 28.3121L102.213 15.4787C103.325 15.2334 104.417 15.0281 105.485 14.8641Z" fill="#FAC91A"/>
<path d="M102.213 15.4787L114.154 28.3121C113.133 28.5374 112.096 28.7974 111.042 29.0894L99.1023 16.2574C100.156 15.9641 101.193 15.7041 102.213 15.4787Z" fill="#FACB1A"/>
<path d="M99.1024 16.2574L111.042 29.0894C110.048 29.3654 109.042 29.6708 108.021 30.0054L96.0811 17.1734C97.1011 16.8374 98.1077 16.5334 99.1024 16.2574Z" fill="#FACC1A"/>
<path d="M96.0809 17.1734L108.021 30.0054C107.049 30.3241 106.066 30.6694 105.072 31.04L93.1316 18.2067C94.1249 17.836 95.1076 17.4907 96.0809 17.1734Z" fill="#FACD1A"/>
<path d="M93.1317 18.2067L105.072 31.04C104.114 31.3973 103.148 31.7787 102.17 32.184L90.229 19.352C91.2063 18.9453 92.173 18.564 93.1317 18.2067Z" fill="#FACF1B"/>
<path d="M90.229 19.352L102.17 32.184C101.281 32.5533 100.385 32.9426 99.4837 33.3493L87.5437 20.5173C88.445 20.1093 89.341 19.7213 90.229 19.352Z" fill="#FAD01B"/>
</g>
<path d="M126.06 19.696C114.066 12.8814 86.7463 23.5801 61.2596 45.4027C32.0969 70.3707 11.5956 104.327 20.4889 119.373C30.6583 136.583 71.2743 119.163 103.992 84.3C131.696 54.7814 139.346 27.2467 126.06 19.696Z" fill="#ECAC17"/>
<path d="M105.234 34.4587L117.174 47.2907L107.658 56.4614L95.7184 43.628L105.234 34.4587Z" fill="#C78518"/>
<path d="M46.6064 90.9534L51.065 95.7454L41.301 105.949L36.4584 100.733L46.6064 90.9534Z" fill="#C78518"/>
<path d="M36.4583 100.733L41.301 105.949L36.7916 101.896L31.949 96.6814L36.4583 100.733Z" fill="#FBBE25"/>
<path d="M87.4089 81.8693C87.5489 80.912 87.5436 79.9294 87.3023 78.9867L81.0622 72.3347C82.0356 76.132 79.5836 80.108 77.3703 82.9747C74.2049 87.0747 70.0716 90.9453 65.5783 93.5707C62.5969 95.4813 58.7356 97.0387 55.1302 96.6333L61.3703 103.285C67.1783 103.939 72.9249 99.9187 77.0956 96.3493C81.3409 92.7147 86.5449 87.6987 87.4089 81.8693Z" fill="#C78518"/>
<path d="M112.694 41.1614L119.045 48.06L108.137 58.572L101.786 51.6734L112.694 41.1614Z" fill="#C78518"/>
<path d="M55.1303 96.6334L61.3704 103.285L50.1583 114.089L43.9183 107.437L55.1303 96.6334Z" fill="#C78518"/>
<path d="M43.9184 107.437L50.1584 114.089L45.6491 110.037L39.4091 103.385L43.9184 107.437Z" fill="#FBBE25"/>
<path d="M108.174 60.0134C108.217 59.5427 108.228 59.0534 108.189 58.5827L101.786 51.6733C102.237 57.1187 97.5664 62.2187 93.9357 65.6373C90.5264 68.8453 85.941 72.2173 81.0624 72.3347L87.465 79.244C92.201 79.1334 96.6624 75.9227 100.005 72.8534C103.582 69.5694 107.702 65.1054 108.174 60.0134Z" fill="#C78518"/>
<mask id="mask3_4_8007" style="mask-type:luminance" maskUnits="userSpaceOnUse" x="5" y="6" width="153" height="146">
<path d="M139.96 6.72934L151.901 19.5614C166.662 35.4267 150.533 74.992 114.916 109.313C78.421 144.481 35.2823 160.812 18.5597 145.784C18.153 145.417 17.765 145.036 17.3957 144.64L5.45435 131.807C5.82501 132.204 6.21301 132.585 6.61968 132.952C23.3423 147.98 66.4797 131.648 102.974 96.48C138.592 62.1587 154.721 22.5933 139.96 6.72934Z" fill="white"/>
</mask>
<g mask="url(#mask3_4_8007)">
<path d="M139.96 6.72937L151.901 19.5614C152.417 20.1174 152.896 20.7014 153.337 21.3134L141.397 8.48139C140.956 7.86939 140.477 7.28404 139.96 6.72937Z" fill="#FBC51A"/>
<path d="M141.397 8.48134L153.337 21.3133C154.124 22.4026 154.792 23.5814 155.344 24.8414L143.402 12.008C142.85 10.7494 142.182 9.57068 141.397 8.48134Z" fill="#FBC61A"/>
<path d="M143.402 12.0081L155.344 24.8414C155.786 25.8534 156.157 26.916 156.452 28.0294L144.51 15.1974C144.214 14.0841 143.846 13.0201 143.402 12.0081Z" fill="#FAC81A"/>
<path d="M144.51 15.1974L156.452 28.0294C156.712 29.0054 156.914 30.0201 157.061 31.0681L145.12 18.2361C144.973 17.1868 144.769 16.1734 144.51 15.1974Z" fill="#FAC91A"/>
<path d="M145.12 18.236L157.061 31.068C157.197 32.0307 157.285 33.0253 157.328 34.0453L145.388 21.2133C145.345 20.192 145.256 19.2 145.12 18.236Z" fill="#FACB1A"/>
<path d="M145.388 21.2133L157.328 34.0454C157.368 34.9907 157.368 35.9587 157.329 36.9493L145.388 24.1174C145.428 23.1267 145.428 22.1573 145.388 21.2133Z" fill="#FACC1A"/>
<path d="M145.388 24.1174L157.329 36.9494C157.292 37.9107 157.217 38.892 157.108 39.8934L145.166 27.0614C145.277 26.0601 145.352 25.0787 145.388 24.1174Z" fill="#FACD1A"/>
<path d="M145.166 27.0614L157.108 39.8933C157 40.8733 156.858 41.8706 156.682 42.8853L144.742 30.0533C144.918 29.0387 145.06 28.04 145.166 27.0614Z" fill="#FACF1B"/>
<path d="M144.742 30.0534L156.682 42.8853C156.509 43.8827 156.305 44.8947 156.066 45.924L144.126 33.0907C144.364 32.0627 144.569 31.0494 144.742 30.0534Z" fill="#FAD01B"/>
<path d="M144.126 33.0907L156.066 45.924C155.829 46.9507 155.56 47.9934 155.26 49.0507L143.32 36.2187C143.62 35.1614 143.889 34.1187 144.126 33.0907Z" fill="#F9D11A"/>
<path d="M143.32 36.2187L155.26 49.0507C154.957 50.1134 154.624 51.1894 154.258 52.2787L142.317 39.4467C142.682 38.3573 143.017 37.2813 143.32 36.2187Z" fill="#F9D21A"/>
<path d="M142.317 39.4467L154.258 52.2787C153.886 53.3854 153.484 54.5041 153.048 55.6374L141.106 42.8041C141.544 41.6721 141.945 40.552 142.317 39.4467Z" fill="#F9D41A"/>
<path d="M141.106 42.804L153.048 55.6374C152.692 56.5614 152.316 57.4933 151.917 58.4333L139.977 45.6014C140.376 44.6614 140.752 43.728 141.106 42.804Z" fill="#F9D51A"/>
<path d="M139.977 45.6014L151.917 58.4334C151.542 59.3227 151.148 60.2174 150.734 61.1187L138.793 48.2853C139.206 47.3853 139.601 46.4894 139.977 45.6014Z" fill="#F8D61A"/>
<path d="M138.793 48.2853L150.734 61.1187C150.27 62.128 149.785 63.144 149.276 64.168L137.336 51.3361C137.845 50.3121 138.33 49.2947 138.793 48.2853Z" fill="#F8D81A"/>
<path d="M137.336 51.3361L149.276 64.168C148.769 65.188 148.24 66.2161 147.686 67.2494L135.746 54.416C136.298 53.3827 136.828 52.3561 137.336 51.3361Z" fill="#F7D91A"/>
<path d="M135.746 54.416L147.686 67.2494C147.152 68.2494 146.596 69.2573 146.018 70.268L134.078 57.436C134.656 56.424 135.212 55.4173 135.746 54.416Z" fill="#F7DA1B"/>
<path d="M134.078 57.436L146.018 70.268C145.453 71.2573 144.87 72.252 144.265 73.2507L132.325 60.4187C132.929 59.42 133.513 58.4254 134.078 57.436Z" fill="#F7DB1B"/>
<path d="M132.325 60.4187L144.265 73.2507C143.672 74.2307 143.061 75.2147 142.432 76.2L130.49 63.368C131.12 62.3813 131.732 61.3974 132.325 60.4187Z" fill="#F7DC1B"/>
<path d="M130.49 63.3681L142.432 76.2001C141.808 77.1761 141.165 78.1561 140.505 79.1374L128.565 66.3041C129.225 65.3227 129.866 64.3441 130.49 63.3681Z" fill="#F6DE1C"/>
<path d="M128.565 66.304L140.505 79.1374C139.849 80.1147 139.174 81.0947 138.482 82.076L126.542 69.2441C127.233 68.2627 127.908 67.2814 128.565 66.304Z" fill="#F6DF1C"/>
<path d="M126.542 69.244L138.482 82.076C137.764 83.096 137.025 84.1174 136.268 85.1414L124.326 72.308C125.084 71.2854 125.822 70.264 126.542 69.244Z" fill="#F6E11C"/>
<path d="M124.326 72.308L136.268 85.1414C135.49 86.192 134.693 87.244 133.877 88.296L121.936 75.464C122.753 74.412 123.549 73.36 124.326 72.308Z" fill="#F6E21C"/>
<path d="M121.936 75.464L133.877 88.296C132.948 89.4934 131.994 90.6894 131.017 91.8854L119.077 79.0534C120.054 77.8574 121.008 76.66 121.936 75.464Z" fill="#F6E31C"/>
<path d="M119.077 79.0534L131.017 91.8854C129.753 93.4334 128.446 94.98 127.101 96.524L115.16 83.6907C116.506 82.1467 117.813 80.6 119.077 79.0534Z" fill="#F5E41C"/>
<path d="M115.16 83.6907L127.101 96.524C123.345 100.831 119.276 105.111 114.916 109.313C114.365 109.843 113.814 110.369 113.261 110.889L101.321 98.0574C101.874 97.536 102.425 97.0107 102.974 96.48C107.336 92.2787 111.405 87.9974 115.16 83.6907Z" fill="#F6EC30"/>
<path d="M101.321 98.0574L113.261 110.889C111.788 112.28 110.304 113.639 108.813 114.967L96.873 102.133C98.3637 100.807 99.8464 99.4467 101.321 98.0574Z" fill="#F5E41C"/>
<path d="M96.873 102.133L108.813 114.967C107.748 115.915 106.677 116.848 105.604 117.764L93.6637 104.931C94.737 104.015 95.8064 103.083 96.873 102.133Z" fill="#F6E31C"/>
<path d="M93.6637 104.931L105.604 117.764C104.609 118.613 103.61 119.449 102.612 120.271L90.6704 107.437C91.6704 106.616 92.6677 105.78 93.6637 104.931Z" fill="#F6E21C"/>
<path d="M90.6703 107.437L102.612 120.271C101.712 121.009 100.809 121.739 99.905 122.455L87.9636 109.621C88.8676 108.905 89.769 108.177 90.6703 107.437Z" fill="#F6E11C"/>
<path d="M87.9637 109.621L99.905 122.455C99.017 123.159 98.1277 123.851 97.237 124.532L85.297 111.699C86.1863 111.019 87.0757 110.327 87.9637 109.621Z" fill="#F6DF1C"/>
<path d="M85.297 111.699L97.237 124.532C96.377 125.192 95.513 125.839 94.6516 126.476L82.7117 113.644C83.573 113.007 84.4357 112.359 85.297 111.699Z" fill="#F6DE1C"/>
<path d="M82.7117 113.644L94.6517 126.476C93.785 127.116 92.9197 127.745 92.053 128.363L80.1117 115.529C80.9784 114.913 81.845 114.284 82.7117 113.644Z" fill="#F7DC1B"/>
<path d="M80.1116 115.529L92.053 128.363C91.1703 128.992 90.2876 129.611 89.405 130.216L77.465 117.383C78.3463 116.777 79.229 116.16 80.1116 115.529Z" fill="#F7DB1B"/>
<path d="M77.465 117.383L89.405 130.216C88.5224 130.823 87.6397 131.417 86.7584 132L74.817 119.168C75.6983 118.584 76.581 117.989 77.465 117.383Z" fill="#F7DA1B"/>
<path d="M74.8169 119.168L86.7583 132C85.8263 132.615 84.8983 133.216 83.9703 133.804L72.0303 120.971C72.9569 120.383 73.8863 119.781 74.8169 119.168Z" fill="#F7D91A"/>
<path d="M72.0303 120.971L83.9703 133.804C83.0436 134.391 82.1169 134.965 81.1929 135.525L69.2529 122.693C70.1756 122.133 71.1023 121.559 72.0303 120.971Z" fill="#F8D81A"/>
<path d="M69.253 122.693L81.193 135.525C80.1957 136.131 79.201 136.72 78.209 137.292L66.2677 124.46C67.2597 123.888 68.2557 123.299 69.253 122.693Z" fill="#F8D61A"/>
<path d="M66.2676 124.46L78.209 137.292C77.2076 137.871 76.209 138.432 75.213 138.976L63.2729 126.144C64.2689 125.6 65.2663 125.037 66.2676 124.46Z" fill="#F9D51A"/>
<path d="M63.273 126.144L75.213 138.976C74.153 139.557 73.097 140.12 72.045 140.663L60.1023 127.831C61.1556 127.287 62.213 126.725 63.273 126.144Z" fill="#F9D41A"/>
<path d="M60.1023 127.831L72.045 140.663C71.0023 141.199 69.9676 141.717 68.9356 142.216L56.9956 129.384C58.0263 128.885 59.0623 128.367 60.1023 127.831Z" fill="#F9D21A"/>
<path d="M56.9957 129.384L68.9357 142.216C67.9264 142.705 66.9197 143.176 65.9197 143.628L53.9797 130.796C54.9797 130.344 55.9851 129.873 56.9957 129.384Z" fill="#F9D11A"/>
<path d="M53.9797 130.796L65.9197 143.628C64.7823 144.143 63.653 144.633 62.5317 145.099L50.5917 132.265C51.7117 131.801 52.841 131.311 53.9797 130.796Z" fill="#FAD01B"/>
<path d="M50.5916 132.265L62.5316 145.099C61.2996 145.609 60.0796 146.091 58.8716 146.541L46.9316 133.709C48.1396 133.259 49.3596 132.777 50.5916 132.265Z" fill="#FACF1B"/>
<path d="M46.9317 133.709L58.8717 146.541C57.6183 147.009 56.3783 147.445 55.153 147.847L43.2117 135.015C44.437 134.612 45.677 134.177 46.9317 133.709Z" fill="#FACD1A"/>
<path d="M43.2117 135.015L55.153 147.847C53.8663 148.269 52.5957 148.653 51.3423 149.001L39.401 136.169C40.6543 135.821 41.925 135.436 43.2117 135.015Z" fill="#FACC1A"/>
<path d="M39.401 136.169L51.3424 149.001C50.013 149.371 48.705 149.697 47.417 149.983L35.4771 137.149C36.7637 136.865 38.073 136.539 39.401 136.169Z" fill="#FACB1A"/>
<path d="M35.477 137.149L47.417 149.983C46.0143 150.292 44.6383 150.552 43.2903 150.759L31.349 137.927C32.697 137.72 34.0743 137.46 35.477 137.149Z" fill="#FAC91A"/>
<path d="M31.349 137.927L43.2903 150.759C41.7436 150.997 40.2357 151.167 38.7703 151.265L26.829 138.433C28.2956 138.335 29.8037 138.164 31.349 137.927Z" fill="#FAC81A"/>
<path d="M26.829 138.433L38.7704 151.265C36.913 151.392 35.125 151.405 33.413 151.304L21.473 138.472C23.1837 138.573 24.973 138.559 26.829 138.433Z" fill="#FBC61A"/>
<path d="M21.473 138.472L33.413 151.304C27.3824 150.945 22.309 149.152 18.5597 145.784C18.153 145.417 17.765 145.036 17.3957 144.64L5.45435 131.807C5.82501 132.204 6.21301 132.585 6.61968 132.952C10.3677 136.32 15.4424 138.112 21.473 138.472Z" fill="#FBC51A"/>
</g>
<path d="M20.337 119.733C33.5877 131.641 67.7757 118.697 96.6917 90.8347C125.62 62.9587 138.326 30.7107 125.077 18.8027C111.832 6.90007 77.6383 19.8373 48.7103 47.7133C19.7943 75.5773 7.093 107.831 20.337 119.733ZM138.794 5.58405C155.517 20.612 139.482 61.3014 102.974 96.48C66.4797 131.648 23.3423 147.98 6.61965 132.952C-10.0963 117.929 5.937 77.2401 42.433 42.0721C78.9397 6.89207 122.078 -9.43862 138.794 5.58405Z" fill="#FACD1A"/>
<path d="M85.2583 49.7574L73.729 60.8667L78.2156 64.8987C80.0183 66.5187 82.7023 67.5161 87.6756 62.7241C92.6356 57.9427 91.6396 55.492 89.745 53.7907L85.2583 49.7574ZM58.001 85.2627C60.117 87.164 63.0676 88.1427 68.8636 82.5574C74.785 76.8507 73.3356 74.1347 71.1223 72.144L66.4156 67.9147L53.041 80.804L58.001 85.2627ZM81.0623 72.3347C81.9556 75.824 79.9956 81.0147 73.1756 87.5881C66.1276 94.3801 59.7143 97.148 55.1303 96.6334L43.9183 107.437L39.409 103.385L49.5569 93.6054L46.6063 90.9534L36.4583 100.733L31.949 96.6814L42.0983 86.9014L39.681 84.728L88.7916 37.404L91.209 39.576L100.725 30.4054L105.234 34.4587L95.7183 43.6281L98.669 46.28L108.185 37.1094L112.694 41.1614L101.786 51.6734C102.08 55.2134 99.9463 59.8481 94.265 65.3227C89.5063 69.9081 84.6916 72.2494 81.0623 72.3347Z" fill="#FBC726"/>
</svg>
