<svg width="135" height="125" viewBox="0 0 135 125" fill="none" xmlns="http://www.w3.org/2000/svg">
<mask id="mask0_4_8013" style="mask-type:luminance" maskUnits="userSpaceOnUse" x="7" y="40" width="56" height="59">
<path d="M31.8575 68.2362C22.8293 78.7855 16.97 90.0322 15.4652 98.4842C12.9496 96.3642 10.4345 94.2455 7.91895 92.1255C9.42415 83.6749 15.2829 72.4295 24.3121 61.8802C34.7681 49.6629 46.6095 41.7295 54.8681 40.6109C57.3828 42.7282 59.8988 44.8482 62.4135 46.9669C54.1548 48.0869 42.3148 56.0189 31.8575 68.2362Z" fill="white"/>
</mask>
<g mask="url(#mask0_4_8013)">
<path d="M57.0761 40.4762L64.6215 46.8335C63.5081 46.8082 62.3068 46.9375 61.0321 47.2109L53.4868 40.8535C54.7601 40.5789 55.9628 40.4509 57.0761 40.4762Z" fill="#FACB1A"/>
<path d="M53.4868 40.8535L61.0322 47.2109C59.9442 47.4442 58.8028 47.7842 57.6188 48.2255L50.0735 41.8682C51.2575 41.4268 52.3988 41.0869 53.4868 40.8535Z" fill="#FACF1A"/>
<path d="M50.0734 41.8682L57.6187 48.2255C56.5001 48.6429 55.3427 49.1495 54.1547 49.7428L46.6094 43.3855C47.796 42.7922 48.9534 42.2842 50.0734 41.8682Z" fill="#F9D11A"/>
<path d="M46.6094 43.3855L54.1548 49.7429C52.9508 50.3442 51.7134 51.0362 50.4561 51.8109L42.9094 45.4535C44.1681 44.6789 45.4041 43.9882 46.6094 43.3855Z" fill="#F9D51A"/>
<path d="M42.9094 45.4536L50.4561 51.8109C49.0934 52.6509 47.7041 53.5895 46.3028 54.6202L38.7574 48.2642C40.1588 47.2322 41.5468 46.2936 42.9094 45.4536Z" fill="#F8D81A"/>
<path d="M38.7574 48.2642L46.3027 54.6202C44.6587 55.8295 42.9961 57.1655 41.3321 58.6202L33.7854 52.2642C35.4507 50.8082 37.1134 49.4722 38.7574 48.2642Z" fill="#F7DB1B"/>
<path d="M33.7854 52.2642L41.3321 58.6202C38.1387 61.4109 34.9374 64.6375 31.8574 68.2362C29.3281 71.1922 27.0481 74.2015 25.0423 77.1895L17.4965 70.8322C19.5022 67.8442 21.7829 64.8349 24.3121 61.8802C27.3921 58.2802 30.5921 55.0535 33.7854 52.2642Z" fill="#F6DE1C"/>
<path d="M17.4966 70.8322L25.0424 77.1895C23.8215 79.0082 22.7023 80.8189 21.6914 82.6042L14.1455 76.2469C15.157 74.4615 16.2758 72.6522 17.4966 70.8322Z" fill="#F7DB1B"/>
<path d="M14.1455 76.2469L21.6914 82.6042C20.8034 84.1709 19.9986 85.7189 19.2804 87.2335L11.7351 80.8775C12.4523 79.3602 13.2575 77.8135 14.1455 76.2469Z" fill="#F8D81A"/>
<path d="M11.7351 80.8775L19.2804 87.2335C18.6105 88.6495 18.0157 90.0362 17.5012 91.3869L9.95532 85.0295C10.4705 83.6789 11.0648 82.2909 11.7351 80.8775Z" fill="#F9D51A"/>
<path d="M9.95527 85.0295L17.5011 91.3869C16.9913 92.7215 16.559 94.0215 16.2074 95.2762L8.66101 88.9175C9.01368 87.6642 9.44594 86.3642 9.95527 85.0295Z" fill="#F9D11A"/>
<path d="M8.66105 88.9175L16.2075 95.2762C15.8335 96.6069 15.5507 97.8869 15.3611 99.1069L7.81519 92.7482C8.00425 91.5295 8.28758 90.2495 8.66105 88.9175Z" fill="#FACF1A"/>
</g>
<path d="M26.4082 68.0695L33.9535 74.4282L29.0375 80.1708L21.4919 73.8148L26.4082 68.0695Z" fill="#EBBC17"/>
<path d="M34.5415 58.5669L42.0882 64.9255L37.1708 70.6682L29.6255 64.3122L34.5415 58.5669Z" fill="#EBBC17"/>
<path d="M21.4919 73.8149L29.0375 80.1709L31.2202 82.1935L23.6753 75.8362L21.4919 73.8149Z" fill="#EFA617"/>
<path d="M23.6753 75.8362L31.2202 82.1935L28.5856 85.2735L21.0393 78.9148L23.6753 75.8362Z" fill="#EBBC17"/>
<path d="M26.4082 68.0695L33.9535 74.4282L36.1375 76.4482L28.5922 70.0922L26.4082 68.0695Z" fill="#FBBE25"/>
<path d="M31.808 66.3335L39.3534 72.6909L36.1374 76.4482L28.592 70.0922L31.808 66.3335Z" fill="#EBBC17"/>
<path d="M29.6255 64.3122L37.1708 70.6682L39.3535 72.6909L31.8082 66.3335L29.6255 64.3122Z" fill="#EFA617"/>
<path d="M33.0828 68.8509L40.6281 75.2082L35.7375 80.9229L28.1921 74.5655L33.0828 68.8509Z" fill="#F9DB26"/>
<mask id="mask1_4_8013" style="mask-type:luminance" maskUnits="userSpaceOnUse" x="37" y="58" width="14" height="10">
<path d="M43.2347 58.7722L50.78 65.1295C49.4654 64.0215 47.1827 65.0429 44.5867 67.2389L37.04 60.8829C39.6374 58.6842 41.92 57.6642 43.2347 58.7722Z" fill="white"/>
</mask>
<g mask="url(#mask1_4_8013)">
<path d="M43.2347 58.7722L50.7801 65.1295C50.4294 64.8335 50.0107 64.6895 49.5361 64.6789L41.9894 58.3215C42.4654 58.3322 42.8841 58.4775 43.2347 58.7722Z" fill="#EEA817"/>
<path d="M41.9894 58.3215L49.536 64.6789C49.3054 64.6735 49.0627 64.7002 48.808 64.7549L41.2627 58.3962C41.5174 58.3415 41.76 58.3162 41.9894 58.3215Z" fill="#ECAB17"/>
<path d="M41.2628 58.3962L48.8081 64.7549C48.5961 64.8002 48.3761 64.8655 48.1481 64.9495L40.6028 58.5935C40.8308 58.5082 41.0508 58.4429 41.2628 58.3962Z" fill="#ECAD17"/>
<path d="M40.6027 58.5935L48.1481 64.9495C47.9281 65.0322 47.7001 65.1322 47.4667 65.2495L39.9214 58.8922C40.1547 58.7762 40.3827 58.6748 40.6027 58.5935Z" fill="#ECAF17"/>
<path d="M39.9214 58.8922L47.4667 65.2495C47.2147 65.3762 46.9547 65.5215 46.6907 65.6842L39.144 59.3282C39.4094 59.1642 39.6694 59.0175 39.9214 58.8922Z" fill="#ECB217"/>
<path d="M39.1441 59.3282L46.6907 65.6842C46.3721 65.8802 46.0454 66.1028 45.7121 66.3468L38.1667 59.9909C38.5001 59.7442 38.8267 59.5228 39.1441 59.3282Z" fill="#EBB417"/>
<path d="M38.1667 59.9909L45.712 66.3469C45.3454 66.6162 44.9694 66.9149 44.5867 67.2389L37.04 60.8829C37.424 60.5575 37.8 60.2602 38.1667 59.9909Z" fill="#EBB817"/>
</g>
<mask id="mask2_4_8013" style="mask-type:luminance" maskUnits="userSpaceOnUse" x="33" y="65" width="13" height="11">
<path d="M38.4348 65.2989L45.9814 71.6575C44.8321 70.6882 42.6708 72.8229 40.6281 75.2082L33.0828 68.8509C35.1254 66.4642 37.2868 64.3309 38.4348 65.2989Z" fill="white"/>
</mask>
<g mask="url(#mask2_4_8013)">
<path d="M38.4348 65.2989L45.9814 71.6562C45.7961 71.4989 45.5841 71.4255 45.3494 71.4175L37.8041 65.0602C38.0374 65.0669 38.2494 65.1429 38.4348 65.2989Z" fill="#FBC125"/>
<path d="M37.8041 65.0602L45.3495 71.4175C45.2428 71.4149 45.1308 71.4269 45.0161 71.4509L37.4695 65.0949C37.5855 65.0695 37.6975 65.0575 37.8041 65.0602Z" fill="#FBC425"/>
<path d="M37.4694 65.0949L45.0161 71.4509C44.9227 71.4709 44.8267 71.4989 44.7294 71.5362L37.1841 65.1789C37.2814 65.1429 37.3774 65.1135 37.4694 65.0949Z" fill="#FBC925"/>
<path d="M37.1841 65.1788L44.7295 71.5362C44.6361 71.5709 44.5401 71.6122 44.4428 71.6628L36.8975 65.3042C36.9948 65.2562 37.0908 65.2148 37.1841 65.1788Z" fill="#FCCB26"/>
<path d="M36.8974 65.3042L44.4427 71.6629C44.3387 71.7149 44.2307 71.7749 44.1214 71.8415L36.576 65.4855C36.684 65.4175 36.7921 65.3575 36.8974 65.3042Z" fill="#FBCF26"/>
<path d="M36.5761 65.4855L44.1215 71.8415C43.9908 71.9229 43.8561 72.0135 43.7201 72.1149L36.1748 65.7575C36.3108 65.6575 36.4441 65.5655 36.5761 65.4855Z" fill="#FBD226"/>
<path d="M36.1748 65.7575L43.7201 72.1149C43.5228 72.2602 43.3201 72.4242 43.1134 72.6055L35.5681 66.2469C35.7748 66.0669 35.9774 65.9029 36.1748 65.7575Z" fill="#FAD625"/>
<path d="M35.5681 66.2469L43.1134 72.6055C42.4534 73.1815 41.7521 73.9229 41.0561 74.7149L33.5107 68.3575C34.2067 67.5642 34.9067 66.8255 35.5681 66.2469Z" fill="#F9D826"/>
<path d="M33.5108 68.3575L41.0561 74.7149C40.9748 74.8082 40.8921 74.9029 40.8095 74.9975L33.2628 68.6402C33.3455 68.5455 33.4281 68.4509 33.5108 68.3575Z" fill="#F8DC26"/>
<path d="M33.2628 68.6402L40.8094 74.9975C40.7494 75.0682 40.6881 75.1375 40.6281 75.2082L33.0828 68.8509C33.1428 68.7802 33.2041 68.7109 33.2628 68.6402Z" fill="#F9D826"/>
</g>
<mask id="mask3_4_8013" style="mask-type:luminance" maskUnits="userSpaceOnUse" x="35" y="65" width="12" height="13">
<path d="M46.0215 71.6922C47.1628 72.7482 45.2388 75.3615 43.2735 77.6575L35.7281 71.3002C37.6921 69.0029 39.6175 66.3909 38.4761 65.3335C40.7388 67.2415 43.8028 69.7322 46.0215 71.6922Z" fill="white"/>
</mask>
<g mask="url(#mask3_4_8013)">
<path d="M38.4761 65.3335L46.0214 71.6922C46.2441 71.8975 46.3507 72.1642 46.3614 72.4762L38.8161 66.1175C38.8041 65.8069 38.6987 65.5415 38.4761 65.3335Z" fill="#EEA817"/>
<path d="M38.8161 66.1175L46.3615 72.4762C46.3655 72.5869 46.3575 72.7015 46.3401 72.8229L38.7935 66.4655C38.8121 66.3442 38.8201 66.2282 38.8161 66.1175Z" fill="#ECAB17"/>
<path d="M38.7935 66.4655L46.3401 72.8229C46.3241 72.9255 46.3001 73.0309 46.2695 73.1402L38.7241 66.7815C38.7548 66.6735 38.7775 66.5669 38.7935 66.4655Z" fill="#ECAD17"/>
<path d="M38.7242 66.7815L46.2695 73.1402C46.2402 73.2469 46.2029 73.3562 46.1602 73.4695L38.6135 67.1109C38.6575 66.9989 38.6935 66.8882 38.7242 66.7815Z" fill="#ECAF17"/>
<path d="M38.6135 67.1109L46.1601 73.4695C46.1135 73.5922 46.0588 73.7189 45.9975 73.8469L38.4521 67.4895C38.5121 67.3602 38.5668 67.2349 38.6135 67.1109Z" fill="#ECB217"/>
<path d="M38.4521 67.4895L45.9975 73.8469C45.9215 74.0082 45.8335 74.1735 45.7375 74.3442L38.1921 67.9869C38.2881 67.8175 38.3748 67.6522 38.4521 67.4895Z" fill="#EBB417"/>
<path d="M38.1921 67.9869L45.7374 74.3442C45.5974 74.5895 45.4401 74.8415 45.2681 75.0989L37.7214 68.7415C37.8948 68.4842 38.0521 68.2309 38.1921 67.9869Z" fill="#EBB817"/>
<path d="M37.7215 68.7415L45.2682 75.0989C44.7068 75.9335 43.9935 76.8162 43.2735 77.6575L35.7281 71.3002C36.4468 70.4589 37.1615 69.5749 37.7215 68.7415Z" fill="#EBBA17"/>
</g>
<mask id="mask4_4_8013" style="mask-type:luminance" maskUnits="userSpaceOnUse" x="38" y="65" width="9" height="7">
<path d="M45.9815 71.6562C45.9948 71.6669 46.0081 71.6789 46.0215 71.6922L38.4761 65.3335C38.4628 65.3229 38.4495 65.3109 38.4348 65.2989C40.6988 67.2069 43.7175 69.7495 45.9815 71.6562Z" fill="white"/>
</mask>
<g mask="url(#mask4_4_8013)">
<path d="M38.4348 65.2989L45.9815 71.6562C45.9948 71.6669 46.0081 71.6789 46.0215 71.6922L38.4761 65.3335C38.4628 65.3229 38.4495 65.3109 38.4348 65.2989Z" fill="#EEA817"/>
</g>
<path d="M28.1921 74.5655L35.7375 80.9229L38.3815 83.3722L30.8361 77.0149L28.1921 74.5655Z" fill="#FBBE25"/>
<path d="M35.7282 71.3002L43.2735 77.6575L38.3815 83.3722L30.8362 77.0149L35.7282 71.3002Z" fill="#EBBC17"/>
<mask id="mask5_4_8013" style="mask-type:luminance" maskUnits="userSpaceOnUse" x="42" y="58" width="10" height="14">
<path d="M43.2349 58.7722L50.7802 65.1295C50.8042 65.1495 50.8282 65.1695 50.8509 65.1922C51.9429 66.2029 51.4175 68.5362 49.8335 71.2509L42.2869 64.8935C43.8722 62.1789 44.3975 59.8455 43.3055 58.8335C43.2829 58.8135 43.2589 58.7922 43.2349 58.7722Z" fill="white"/>
</mask>
<g mask="url(#mask5_4_8013)">
<path d="M43.2349 58.7722L50.7802 65.1295C50.8042 65.1495 50.8282 65.1695 50.8509 65.1922C51.2202 65.5335 51.4042 66.0255 51.4255 66.6309L43.8789 60.2749C43.8575 59.6669 43.6735 59.1749 43.3055 58.8335C43.2829 58.8135 43.2589 58.7922 43.2349 58.7722Z" fill="#FBC125"/>
<path d="M43.8789 60.2749L51.4256 66.6309C51.4336 66.8789 51.4162 67.1455 51.3722 67.4282L43.8256 61.0709C43.8709 60.7869 43.8882 60.5215 43.8789 60.2749Z" fill="#FBC425"/>
<path d="M43.8255 61.0709L51.3721 67.4282C51.3348 67.6709 51.2775 67.9282 51.2028 68.1935L43.6561 61.8362C43.7321 61.5695 43.7881 61.3149 43.8255 61.0709Z" fill="#FBC925"/>
<path d="M43.6562 61.8362L51.2029 68.1935C51.1295 68.4535 51.0389 68.7229 50.9335 69.0015L43.3882 62.6455C43.4935 62.3669 43.5842 62.0962 43.6562 61.8362Z" fill="#FCCB26"/>
<path d="M43.3882 62.6455L50.9335 69.0015C50.8202 69.2975 50.6895 69.6042 50.5402 69.9175L42.9949 63.5602C43.1442 63.2469 43.2749 62.9415 43.3882 62.6455Z" fill="#FBCF26"/>
<path d="M42.9948 63.5602L50.5401 69.9175C50.3708 70.2775 50.1761 70.6482 49.9615 71.0269L42.4161 64.6695C42.6308 64.2909 42.8241 63.9202 42.9948 63.5602Z" fill="#FBD226"/>
<path d="M42.4162 64.6695L49.9615 71.0269C49.9202 71.1015 49.8775 71.1762 49.8335 71.2509L42.2869 64.8935C42.3309 64.8189 42.3735 64.7442 42.4162 64.6695Z" fill="#FAD625"/>
</g>
<mask id="mask6_4_8013" style="mask-type:luminance" maskUnits="userSpaceOnUse" x="54" y="40" width="16" height="9">
<path d="M62.4135 46.9669C59.8988 44.8482 57.3828 42.7282 54.8682 40.6108C57.8855 40.2015 60.4242 40.7015 62.2415 42.2322L69.7882 48.5909C67.9695 47.0575 65.4308 46.5575 62.4135 46.9669Z" fill="white"/>
</mask>
<g mask="url(#mask6_4_8013)">
<path d="M62.2415 42.2322L69.7868 48.5909C68.4322 47.4482 66.6775 46.8802 64.6215 46.8335L57.0762 40.4762C59.1308 40.5228 60.8868 41.0909 62.2415 42.2322Z" fill="#FAC81A"/>
<path d="M57.0761 40.4762L64.6215 46.8335C63.5081 46.8082 62.3068 46.9375 61.0321 47.2109L53.4868 40.8535C54.7601 40.5789 55.9628 40.4509 57.0761 40.4762Z" fill="#FACB1A"/>
</g>
<mask id="mask7_4_8013" style="mask-type:luminance" maskUnits="userSpaceOnUse" x="7" y="92" width="11" height="19">
<path d="M17.7133 109.923C17.7914 109.996 17.871 110.064 17.9523 110.134L10.4059 103.776C10.3253 103.708 10.2461 103.638 10.1679 103.566C7.68048 101.262 7.01581 97.1975 7.91901 92.1255C10.4346 94.2455 12.9497 96.3642 15.4653 98.4842C14.5617 103.554 15.2262 107.619 17.7133 109.923Z" fill="white"/>
</mask>
<g mask="url(#mask7_4_8013)">
<path d="M8.66117 88.9175L16.2076 95.2762C15.8336 96.6068 15.5508 97.8868 15.3612 99.1068L7.81531 92.7482C8.00437 91.5295 8.28771 90.2495 8.66117 88.9175Z" fill="#FACF1A"/>
<path d="M7.8153 92.7482L15.3612 99.1069C15.1398 100.534 15.0482 101.875 15.0909 103.114L7.54556 96.7575C7.50236 95.5175 7.59396 94.1749 7.8153 92.7482Z" fill="#FACB1A"/>
<path d="M7.54553 96.7575L15.0909 103.114C15.1925 106.027 16.0409 108.374 17.7133 109.923C17.7925 109.996 17.8715 110.066 17.9523 110.134L10.407 103.776C10.3262 103.708 10.2461 103.638 10.1679 103.566C8.49447 102.016 7.6466 99.6695 7.54553 96.7575Z" fill="#FAC81A"/>
</g>
<path d="M27.5948 62.9442C13.6184 78.2055 5.00749 96.5722 9.81216 103.587C15.2351 111.503 34.4442 101.326 50.6402 81.6069C65.4601 63.5629 69.8375 46.9055 62.3015 43.4202C55.5135 40.2789 40.5948 48.7508 27.5948 62.9442Z" fill="#ECAF17"/>
<path d="M37.6427 72.5709L45.1881 78.9282L40.0574 84.9242L32.5107 78.5655L37.6427 72.5709Z" fill="#F9DB26"/>
<mask id="mask8_4_8013" style="mask-type:luminance" maskUnits="userSpaceOnUse" x="37" y="68" width="15" height="11">
<path d="M43.9522 68.3175L51.4975 74.6735C50.1242 73.5175 47.5735 76.1402 45.1882 78.9282L37.6428 72.5708C40.0282 69.7828 42.5788 67.1602 43.9522 68.3175Z" fill="white"/>
</mask>
<g mask="url(#mask8_4_8013)">
<path d="M43.9522 68.3175L51.4975 74.6735C51.2802 74.4908 51.0322 74.4015 50.7602 74.3935L43.2148 68.0375C43.4855 68.0455 43.7335 68.1335 43.9522 68.3175Z" fill="#FBC125"/>
<path d="M43.2148 68.0375L50.7601 74.3935C50.6375 74.3908 50.5095 74.4042 50.3761 74.4335L42.8308 68.0749C42.9628 68.0469 43.0921 68.0335 43.2148 68.0375Z" fill="#FBC425"/>
<path d="M42.8308 68.0749L50.3761 74.4335C50.2695 74.4549 50.1601 74.4882 50.0481 74.5295L42.5028 68.1722C42.6148 68.1309 42.7241 68.0989 42.8308 68.0749Z" fill="#FBC925"/>
<path d="M42.5028 68.1722L50.0482 74.5295C49.9415 74.5695 49.8335 74.6162 49.7228 74.6722L42.1775 68.3148C42.2882 68.2602 42.3962 68.2122 42.5028 68.1722Z" fill="#FCCB26"/>
<path d="M42.1775 68.3148L49.7228 74.6722C49.6041 74.7308 49.4828 74.8002 49.3588 74.8762L41.8135 68.5188C41.9361 68.4428 42.0588 68.3748 42.1775 68.3148Z" fill="#FBCF26"/>
<path d="M41.8135 68.5188L49.3588 74.8762C49.2082 74.9695 49.0548 75.0735 48.8988 75.1882L41.3522 68.8308C41.5095 68.7175 41.6628 68.6108 41.8135 68.5188Z" fill="#FBD226"/>
<path d="M41.3522 68.8308L48.8988 75.1882C48.6735 75.3548 48.4428 75.5428 48.2082 75.7468L40.6628 69.3895C40.8975 69.1842 41.1282 68.9975 41.3522 68.8308Z" fill="#FAD625"/>
<path d="M40.6628 69.3895L48.2081 75.7468C47.4535 76.4082 46.6548 77.2535 45.8601 78.1549L38.3148 71.7962C39.1095 70.8962 39.9082 70.0509 40.6628 69.3895Z" fill="#F9D826"/>
<path d="M38.3148 71.7962L45.8601 78.1548C45.7028 78.3322 45.5454 78.5122 45.3894 78.6948L37.8428 72.3362C38.0001 72.1562 38.1574 71.9748 38.3148 71.7962Z" fill="#F8DC26"/>
<path d="M37.8428 72.3362L45.3895 78.6948C45.3215 78.7722 45.2548 78.8495 45.1882 78.9282L37.6428 72.5708C37.7095 72.4935 37.7762 72.4148 37.8428 72.3362Z" fill="#F9D826"/>
</g>
<mask id="mask9_4_8013" style="mask-type:luminance" maskUnits="userSpaceOnUse" x="42" y="61" width="15" height="11">
<path d="M49.4335 62.1455L56.9802 68.5015C55.4015 67.1722 52.6629 68.6269 49.8335 71.2509L42.2869 64.8935C45.1175 62.2695 47.8562 60.8149 49.4335 62.1455Z" fill="white"/>
</mask>
<g mask="url(#mask9_4_8013)">
<path d="M49.4335 62.1455L56.9802 68.5015C56.5882 68.1722 56.1255 68.0135 55.6069 68.0015L48.0615 61.6442C48.5789 61.6562 49.0429 61.8149 49.4335 62.1455Z" fill="#EEA817"/>
<path d="M48.0616 61.6442L55.6069 68.0015C55.3616 67.9962 55.1042 68.0242 54.8362 68.0815L47.2896 61.7229C47.5589 61.6655 47.8162 61.6388 48.0616 61.6442Z" fill="#ECAB17"/>
<path d="M47.2896 61.7229L54.8362 68.0815C54.6136 68.1282 54.3829 68.1975 54.1469 68.2855L46.6016 61.9282C46.8376 61.8402 47.0669 61.7722 47.2896 61.7229Z" fill="#ECAD17"/>
<path d="M46.6015 61.9282L54.1469 68.2855C53.9215 68.3695 53.6882 68.4722 53.4509 68.5909L45.9055 62.2322C46.1429 62.1135 46.3749 62.0122 46.6015 61.9282Z" fill="#ECAF17"/>
<path d="M45.9055 62.2322L53.4509 68.5909C53.2002 68.7175 52.9415 68.8602 52.6802 69.0215L45.1349 62.6642C45.3962 62.5029 45.6535 62.3589 45.9055 62.2322Z" fill="#ECB217"/>
<path d="M45.1349 62.6642L52.6802 69.0215C52.3709 69.2135 52.0536 69.4282 51.7322 69.6642L44.1869 63.3069C44.5082 63.0709 44.8242 62.8562 45.1349 62.6642Z" fill="#EBB417"/>
<path d="M44.1868 63.3069L51.7321 69.6642C51.2988 69.9842 50.8575 70.3402 50.4108 70.7309L42.8655 64.3735C43.3121 63.9842 43.7535 63.6255 44.1868 63.3069Z" fill="#EBB817"/>
<path d="M42.8655 64.3735L50.4109 70.7309C50.2189 70.8975 50.0269 71.0722 49.8335 71.2509L42.2869 64.8935C42.4815 64.7149 42.6735 64.5415 42.8655 64.3735Z" fill="#EBBA17"/>
</g>
<path d="M32.5107 78.5655L40.0574 84.9242L43.1281 87.7682L35.5827 81.4109L32.5107 78.5655Z" fill="#FBBE25"/>
<path d="M37.6427 72.5708C40.0561 69.7508 42.6387 67.0989 44.0001 68.3589C45.3294 69.5909 43.2987 72.3948 40.9921 75.0908L35.5827 81.4108L32.5107 78.5655L37.6427 72.5708Z" fill="#C78518"/>
<mask id="mask10_4_8013" style="mask-type:luminance" maskUnits="userSpaceOnUse" x="40" y="68" width="12" height="14">
<path d="M43.9522 68.3175L51.4975 74.6735C51.5135 74.6882 51.5295 74.7028 51.5455 74.7175C52.8749 75.9468 50.8442 78.7535 48.5375 81.4468L40.9922 75.0909C43.2989 72.3949 45.3295 69.5909 44.0002 68.3589C43.9842 68.3442 43.9682 68.3308 43.9522 68.3175Z" fill="white"/>
</mask>
<g mask="url(#mask10_4_8013)">
<path d="M43.9521 68.3175L51.4975 74.6735C51.5135 74.6882 51.5295 74.7028 51.5455 74.7175C51.8215 74.9722 51.9535 75.2948 51.9668 75.6708L44.4215 69.3148C44.4068 68.9388 44.2761 68.6149 44.0001 68.3589C43.9841 68.3442 43.9681 68.3308 43.9521 68.3175Z" fill="#EEA817"/>
<path d="M44.4214 69.3148L51.9668 75.6708C51.9721 75.8002 51.9628 75.9362 51.9414 76.0762L44.3961 69.7188C44.4175 69.5775 44.4254 69.4428 44.4214 69.3148Z" fill="#ECAB17"/>
<path d="M44.3962 69.7188L51.9415 76.0762C51.9228 76.1935 51.8961 76.3148 51.8615 76.4402L44.3148 70.0815C44.3508 69.9562 44.3775 69.8348 44.3962 69.7188Z" fill="#ECAD17"/>
<path d="M44.3148 70.0815L51.8615 76.4402C51.8281 76.5588 51.7868 76.6828 51.7375 76.8095L44.1921 70.4508C44.2401 70.3255 44.2815 70.2015 44.3148 70.0815Z" fill="#ECAF17"/>
<path d="M44.1921 70.4508L51.7374 76.8095C51.6854 76.9468 51.6241 77.0882 51.5561 77.2322L44.0107 70.8748C44.0787 70.7295 44.1401 70.5895 44.1921 70.4508Z" fill="#ECB217"/>
</g>
<path d="M49.4335 62.1455C51.8949 64.2162 48.9162 68.9855 47.6655 70.9375L52.8802 75.3402C54.1309 73.4029 57.0255 68.7562 54.5682 66.6882L49.4335 62.1455Z" fill="#C78518"/>
<path d="M34.9414 86.2708L38.1801 89.2548L35.5454 92.3335L32.3054 89.3495L34.9414 86.2708Z" fill="#C78518"/>
<path d="M43.0734 76.7682L46.3841 79.8428L43.1668 83.6015L39.8574 80.5255L43.0734 76.7682Z" fill="#C78518"/>
<path d="M42.1827 82.6788L44.8147 85.0508L39.8987 90.7948L37.2654 88.4242L42.1827 82.6788Z" fill="#E19316"/>
<path d="M50.3161 73.1762L52.9255 75.2775L47.8561 81.2388L45.3988 78.9215L50.3161 73.1762Z" fill="#E19316"/>
<path d="M33.0828 68.8508L28.1921 74.5655L30.8361 77.0148L35.7281 71.3002C37.6921 69.0028 39.6175 66.3908 38.4761 65.3335C37.3375 64.2802 35.1495 66.4375 33.0828 68.8508Z" fill="#C78518"/>
<mask id="mask11_4_8013" style="mask-type:luminance" maskUnits="userSpaceOnUse" x="10" y="42" width="63" height="70">
<path d="M62.2415 42.2322L69.7869 48.5909C69.8695 48.6589 69.9482 48.7282 70.0268 48.8015C76.6628 54.9468 70.3309 73.6095 55.8855 90.4895C41.6095 107.17 24.7518 115.863 17.9523 110.134L10.407 103.776C17.2059 109.504 34.0628 100.812 48.3388 84.1322C62.7855 67.2535 69.1162 48.5895 62.4802 42.4429C62.4015 42.3722 62.3228 42.3015 62.2415 42.2322Z" fill="white"/>
</mask>
<g mask="url(#mask11_4_8013)">
<path d="M62.2415 42.2322L69.7868 48.5909C69.8695 48.6589 69.9481 48.7282 70.0268 48.8015C71.7001 50.3508 72.5495 52.6988 72.6508 55.6122L65.1055 49.2562C65.0041 46.3415 64.1548 43.9948 62.4801 42.4428C62.4015 42.3722 62.3228 42.3015 62.2415 42.2322Z" fill="#EEA817"/>
<path d="M65.1055 49.2562L72.6508 55.6122C72.6935 56.8522 72.6015 58.1948 72.3802 59.6215L64.8348 53.2655C65.0562 51.8375 65.1482 50.4962 65.1055 49.2562Z" fill="#ECAB17"/>
<path d="M64.8348 53.2655L72.3802 59.6215C72.1908 60.8402 71.9082 62.1215 71.5348 63.4522L63.9882 57.0962C64.3628 55.7642 64.6455 54.4842 64.8348 53.2655Z" fill="#ECAD17"/>
<path d="M63.9882 57.0962L71.5348 63.4522C71.1828 64.7082 70.7508 66.0055 70.2402 67.3415L62.6948 60.9842C63.2042 59.6495 63.6362 58.3495 63.9882 57.0962Z" fill="#ECAF17"/>
<path d="M62.6948 60.9842L70.2401 67.3415C69.7255 68.6922 69.1308 70.0789 68.4615 71.4949L60.9161 65.1362C61.5855 63.7215 62.1788 62.3349 62.6948 60.9842Z" fill="#ECB217"/>
<path d="M60.9162 65.1362L68.4615 71.4948C67.7442 73.0095 66.9388 74.5562 66.0508 76.1229L58.5055 69.7669C59.3935 68.2002 60.1975 66.6522 60.9162 65.1362Z" fill="#EBB417"/>
<path d="M58.5055 69.7668L66.0508 76.1228C65.0401 77.9082 63.9215 79.7188 62.7001 81.5375L55.1548 75.1788C56.3748 73.3615 57.4935 71.5508 58.5055 69.7668Z" fill="#EBB817"/>
<path d="M55.1548 75.1788L62.7001 81.5375C60.6948 84.5242 58.4135 87.5349 55.8855 90.4895C52.8055 94.0882 49.6055 97.3149 46.4121 100.106L38.8655 93.7482C42.0588 90.9575 45.2588 87.7308 48.3388 84.1322C50.8681 81.1762 53.1481 78.1668 55.1548 75.1788Z" fill="#EBBA17"/>
<path d="M38.8656 93.7482L46.4122 100.106C44.7469 101.559 43.0842 102.896 41.4416 104.104L33.8962 97.7468C35.5389 96.5388 37.2016 95.2028 38.8656 93.7482Z" fill="#EBB817"/>
<path d="M33.8961 97.7468L41.4415 104.104C40.0388 105.136 38.6508 106.074 37.2881 106.914L29.7428 100.556C31.1055 99.7175 32.4935 98.7775 33.8961 97.7468Z" fill="#EBB417"/>
<path d="M29.7428 100.556L37.2881 106.914C36.0308 107.688 34.7948 108.38 33.5895 108.983L26.0433 102.624C27.2495 102.023 28.4841 101.331 29.7428 100.556Z" fill="#ECB217"/>
<path d="M26.0434 102.624L33.5896 108.983C32.4016 109.575 31.2456 110.083 30.1256 110.499L22.58 104.142C23.6997 103.724 24.8565 103.219 26.0434 102.624Z" fill="#ECAF17"/>
<path d="M22.5799 104.142L30.1255 110.499C28.9415 110.941 27.8001 111.28 26.7121 111.513L19.1663 105.158C20.2548 104.923 21.3965 104.583 22.5799 104.142Z" fill="#ECAD17"/>
<path d="M19.1663 105.158L26.7121 111.514C25.4376 111.788 24.2356 111.916 23.1209 111.891L15.5752 105.535C16.6892 105.559 17.8919 105.431 19.1663 105.158Z" fill="#ECAB17"/>
<path d="M15.5753 105.535L23.121 111.891C21.0648 111.844 19.3086 111.276 17.9523 110.134L10.407 103.776C11.7627 104.919 13.5195 105.488 15.5753 105.535Z" fill="#EEA817"/>
</g>
<path d="M48.3388 84.1322C62.7855 67.2535 69.1161 48.5895 62.4801 42.4429C55.8468 36.3002 38.7588 45.0002 24.3122 61.8802C9.86575 78.7589 3.53509 97.4229 10.1679 103.566C16.8039 109.712 33.8935 101.011 48.3388 84.1322ZM21.1652 58.9655C39.3908 37.6709 60.9588 26.6855 69.3308 34.4402C77.7055 42.1962 69.7108 65.7522 51.4855 87.0469C33.2602 108.34 11.6991 119.319 3.32415 111.562C-5.04824 103.808 2.93975 80.2602 21.1652 58.9655Z" fill="#F9D11A"/>
<path d="M28.1922 74.5655L30.8362 77.0149L35.7282 71.3002C37.6922 69.0029 39.6176 66.3909 38.4762 65.3335C37.3376 64.2802 35.1496 66.4375 33.0829 68.8509L28.1922 74.5655ZM40.9922 75.0909C43.2989 72.3949 45.3296 69.5909 44.0002 68.3589C42.6389 67.0989 40.0562 69.7509 37.6429 72.5709L32.5109 78.5655L35.5829 81.4109L40.9922 75.0909ZM42.2869 64.8935C45.1656 62.2242 47.9496 60.7669 49.5136 62.2162C51.1309 63.7135 50.1909 67.0109 47.7469 70.7975L50.3162 73.1762L45.3989 78.9215L43.0736 76.7682L39.8576 80.5255L42.1829 82.6789L37.2656 88.4242L34.9416 86.2709L32.3056 89.3495L21.0393 78.9149L23.6753 75.8362L21.492 73.8149L26.4082 68.0695L28.5922 70.0922L31.8082 66.3335L29.6256 64.3122L34.5416 58.5669L37.0402 60.8829C39.6842 58.6442 42.0016 57.6269 43.3056 58.8335C44.3976 59.8455 43.8722 62.1789 42.2869 64.8935Z" fill="#FCCB26"/>
<mask id="mask12_4_8013" style="mask-type:luminance" maskUnits="userSpaceOnUse" x="3" y="34" width="78" height="87">
<path d="M69.0295 34.1735L76.5748 40.5308C76.6775 40.6162 76.7775 40.7055 76.8761 40.7975C85.2521 48.5535 77.2575 72.1095 59.0321 93.4042C41.0215 114.447 19.7523 125.415 11.1709 118.186L3.62573 111.83C12.2069 119.058 33.4748 108.09 51.4855 87.0468C69.7108 65.7522 77.7055 42.1962 69.3308 34.4402C69.2321 34.3482 69.1321 34.2602 69.0295 34.1735Z" fill="white"/>
</mask>
<g mask="url(#mask12_4_8013)">
<path d="M69.0294 34.1735L76.5747 40.5308C76.6774 40.6162 76.7774 40.7055 76.8761 40.7975C78.9894 42.7535 80.0601 45.7162 80.1881 49.3922L72.6427 43.0362C72.5134 39.3575 71.4441 36.3962 69.3308 34.4402C69.2321 34.3482 69.1321 34.2602 69.0294 34.1735Z" fill="#FACF26"/>
<path d="M72.6428 43.0361L80.1882 49.3922C80.2428 50.9562 80.1255 52.6508 79.8468 54.4508L72.3015 48.0948C72.5802 46.2935 72.6975 44.6001 72.6428 43.0361Z" fill="#FAD126"/>
<path d="M72.3015 48.0949L79.8469 54.4508C79.6082 55.9908 79.2508 57.6068 78.7788 59.2855L71.2335 52.9295C71.7055 51.2482 72.0629 49.6322 72.3015 48.0949Z" fill="#F9D525"/>
<path d="M71.2334 52.9295L78.7788 59.2855C78.3348 60.8695 77.7894 62.5082 77.1468 64.1935L69.6001 57.8362C70.2441 56.1522 70.7894 54.5108 71.2334 52.9295Z" fill="#F8D726"/>
<path d="M69.6001 57.8362L77.1467 64.1935C76.4961 65.8975 75.7467 67.6495 74.9001 69.4349L67.3547 63.0762C68.2014 61.2908 68.9507 59.5415 69.6001 57.8362Z" fill="#F8DA26"/>
<path d="M67.3548 63.0762L74.9001 69.4349C73.9948 71.3469 72.9801 73.3002 71.8588 75.2762L64.3135 68.9202C65.4335 66.9429 66.4495 64.9908 67.3548 63.0762Z" fill="#F7DC26"/>
<path d="M64.3134 68.9202L71.8588 75.2762C70.5828 77.5295 69.1708 79.8135 67.6308 82.1095L60.0841 75.7508C61.6241 73.4562 63.0374 71.1708 64.3134 68.9202Z" fill="#F6E026"/>
<path d="M60.0841 75.7508L67.6308 82.1095C65.1001 85.8788 62.2228 89.6748 59.0321 93.4042C55.1468 97.9428 51.1095 102.014 47.0815 105.535L39.5348 99.1762C43.5641 95.6575 47.6001 91.5868 51.4855 87.0468C54.6761 83.3188 57.5535 79.5202 60.0841 75.7508Z" fill="#F8E734"/>
<path d="M39.5348 99.1762L47.0815 105.535C44.9815 107.37 42.8842 109.054 40.8108 110.579L33.2655 104.222C35.3375 102.698 37.4348 101.012 39.5348 99.1762Z" fill="#F6E026"/>
<path d="M33.2655 104.222L40.8108 110.579C39.0415 111.88 37.2895 113.064 35.5708 114.123L28.0255 107.767C29.7442 106.707 31.4962 105.523 33.2655 104.222Z" fill="#F7DC26"/>
<path d="M28.0254 107.767L35.5708 114.123C33.9841 115.102 32.4254 115.974 30.9041 116.734L23.3585 110.376C24.8793 109.615 26.4388 108.744 28.0254 107.767Z" fill="#F8DA26"/>
<path d="M23.3585 110.376L30.9041 116.734C29.4068 117.482 27.9468 118.122 26.5348 118.648L18.9886 112.29C20.4006 111.764 21.8611 111.124 23.3585 110.376Z" fill="#F8D726"/>
<path d="M18.9886 112.29L26.5348 118.648C25.0402 119.204 23.6001 119.634 22.2261 119.928L14.6809 113.571C16.0542 113.276 17.4944 112.847 18.9886 112.29Z" fill="#F9D525"/>
<path d="M14.681 113.571L22.2262 119.928C20.6184 120.275 19.1007 120.436 17.6944 120.404L10.1486 114.047C11.5548 114.079 13.072 113.916 14.681 113.571Z" fill="#FAD126"/>
<path d="M10.1485 114.047L17.6944 120.404C15.0991 120.346 12.8829 119.628 11.1709 118.186L3.62573 111.83C5.3372 113.271 7.55387 113.99 10.1485 114.047Z" fill="#FACF26"/>
</g>
<mask id="mask13_4_8013" style="mask-type:luminance" maskUnits="userSpaceOnUse" x="96" y="25" width="29" height="63">
<path d="M96.2388 29.0935C99.1668 27.8349 102.092 26.5749 105.02 25.3162C119.979 40.0375 128.089 64.1815 123.596 83.7655L114.816 87.5429C119.309 67.9589 111.197 43.8149 96.2388 29.0935Z" fill="white"/>
</mask>
<g mask="url(#mask13_4_8013)">
<path d="M123.596 83.7655L114.816 87.5429C114.823 87.5109 114.831 87.4802 114.837 87.4482L123.619 83.6709C123.611 83.7029 123.604 83.7335 123.596 83.7655Z" fill="#FACB1A"/>
<path d="M123.619 83.6709L114.838 87.4482C114.964 86.8935 115.08 86.3335 115.186 85.7722L123.967 81.9935C123.862 82.5562 123.744 83.1149 123.619 83.6709Z" fill="#FACD1A"/>
<path d="M123.967 81.9935L115.186 85.7722C115.292 85.2082 115.388 84.6429 115.475 84.0735L124.256 80.2949C124.17 80.8642 124.074 81.4309 123.967 81.9935Z" fill="#FACF1B"/>
<path d="M124.256 80.2949L115.475 84.0735C115.567 83.4669 115.647 82.8589 115.716 82.2469L124.498 78.4682C124.428 79.0815 124.347 79.6895 124.256 80.2949Z" fill="#F9D11A"/>
<path d="M124.498 78.4682L115.716 82.2468C115.787 81.6362 115.844 81.0215 115.892 80.4055L124.674 76.6268C124.626 77.2442 124.567 77.8575 124.498 78.4682Z" fill="#F9D41A"/>
<path d="M124.674 76.6268L115.892 80.4055C115.939 79.8095 115.975 79.2122 116 78.6122L124.782 74.8349C124.756 75.4349 124.719 76.0322 124.674 76.6268Z" fill="#F8D61A"/>
<path d="M124.781 74.8349L116 78.6122C116.027 78.0135 116.043 77.4122 116.049 76.8109L124.829 73.0322C124.823 73.6349 124.807 74.2362 124.781 74.8349Z" fill="#F7D91A"/>
<path d="M124.829 73.0322L116.05 76.8109C116.055 76.2255 116.052 75.6402 116.04 75.0535L124.82 71.2762C124.834 71.8629 124.836 72.4482 124.829 73.0322Z" fill="#F7DB1B"/>
<path d="M124.82 71.2762L116.04 75.0535C116.028 74.4669 116.007 73.8789 115.978 73.2895L124.758 69.5109C124.787 70.1015 124.808 70.6895 124.82 71.2762Z" fill="#F7DC1B"/>
<path d="M124.757 69.5109L115.977 73.2895C115.947 72.7082 115.908 72.1242 115.861 71.5415L124.643 67.7629C124.689 68.3469 124.728 68.9295 124.757 69.5109Z" fill="#F6DF1C"/>
<path d="M124.643 67.7628L115.861 71.5415C115.815 70.9562 115.759 70.3735 115.696 69.7882L124.476 66.0108C124.54 66.5962 124.595 67.1788 124.643 67.7628Z" fill="#F6E21C"/>
<path d="M124.476 66.0109L115.696 69.7882C115.631 69.1962 115.558 68.6042 115.476 68.0109L124.256 64.2335C124.339 64.8269 124.412 65.4189 124.476 66.0109Z" fill="#F5E41C"/>
<path d="M124.256 64.2335L115.476 68.0108C115.393 67.4175 115.303 66.8242 115.204 66.2295L123.984 62.4522C124.084 63.0468 124.175 63.6402 124.256 64.2335Z" fill="#F6EC32"/>
<path d="M123.984 62.4522L115.204 66.2295C115.098 65.5975 114.983 64.9629 114.858 64.3309L123.639 60.5535C123.763 61.1855 123.879 61.8202 123.984 62.4522Z" fill="#F6EF40"/>
<path d="M123.639 60.5535L114.857 64.3308C114.731 63.6882 114.595 63.0455 114.448 62.4042L123.229 58.6255C123.375 59.2682 123.512 59.9095 123.639 60.5535Z" fill="#F6F04B"/>
<path d="M123.23 58.6256L114.448 62.4042C114.276 61.6495 114.092 60.8962 113.894 60.1455L122.674 56.3682C122.872 57.1189 123.058 57.8722 123.23 58.6256Z" fill="#F6F256"/>
<path d="M122.674 56.3682L113.894 60.1455C113.668 59.2922 113.426 58.4429 113.168 57.5975L121.95 53.8202C122.207 54.6642 122.45 55.5149 122.674 56.3682Z" fill="#F6F460"/>
<path d="M121.95 53.8202L113.168 57.5975C112.79 56.3548 112.375 55.1215 111.927 53.8988L120.708 50.1215C121.156 51.3442 121.57 52.5775 121.95 53.8202Z" fill="#F8F467"/>
<path d="M120.708 50.1215L111.927 53.8988C111.041 51.4842 110.024 49.1095 108.883 46.8015L117.664 43.0242C118.805 45.3322 119.823 47.7068 120.708 50.1215Z" fill="#F8F470"/>
<path d="M117.664 43.0242L108.883 46.8015C108.308 45.6375 107.7 44.4895 107.063 43.3602L115.843 39.5829C116.482 40.7122 117.088 41.8602 117.664 43.0242Z" fill="#F8F467"/>
<path d="M115.843 39.5829L107.063 43.3602C106.611 42.5589 106.143 41.7682 105.659 40.9869L114.44 37.2095C114.923 37.9909 115.391 38.7802 115.843 39.5829Z" fill="#F6F460"/>
<path d="M114.44 37.2095L105.659 40.9869C105.282 40.3749 104.894 39.7708 104.498 39.1722L113.279 35.3935C113.675 35.9922 114.063 36.5975 114.44 37.2095Z" fill="#F6F256"/>
<path d="M113.279 35.3935L104.497 39.1722C104.117 38.5989 103.729 38.0309 103.332 37.4709L112.113 33.6935C112.509 34.2535 112.899 34.8215 113.279 35.3935Z" fill="#F6F04B"/>
<path d="M112.113 33.6936L103.332 37.4709C102.969 36.9589 102.6 36.4522 102.224 35.9522L111.005 32.1749C111.381 32.6749 111.751 33.1816 112.113 33.6936Z" fill="#F6EF40"/>
<path d="M111.006 32.1748L102.224 35.9522C101.855 35.4615 101.48 34.9762 101.098 34.4975L109.879 30.7202C110.26 31.1989 110.636 31.6842 111.006 32.1748Z" fill="#F6EC32"/>
<path d="M109.879 30.7202L101.098 34.4975C100.731 34.0375 100.356 33.5815 99.9775 33.1322L108.759 29.3549C109.138 29.8042 109.511 30.2589 109.879 30.7202Z" fill="#F5E41C"/>
<path d="M108.759 29.3549L99.9775 33.1322C99.5989 32.6842 99.2135 32.2415 98.8229 31.8055L107.604 28.0282C107.995 28.4642 108.379 28.9069 108.759 29.3549Z" fill="#F6E21C"/>
<path d="M107.604 28.0282L98.8229 31.8055C98.4336 31.3695 98.0376 30.9402 97.6362 30.5162L106.416 26.7375C106.818 27.1615 107.214 27.5909 107.604 28.0282Z" fill="#F6DF1C"/>
<path d="M106.416 26.7375L97.6361 30.5162C97.2334 30.0922 96.8254 29.6749 96.4121 29.2656L105.193 25.4882C105.607 25.8962 106.013 26.3149 106.416 26.7375Z" fill="#F7DC1B"/>
<path d="M105.194 25.4882L96.4122 29.2655C95.9895 28.8455 95.5615 28.4335 95.1282 28.0295L103.908 24.2509C104.343 24.6562 104.771 25.0669 105.194 25.4882Z" fill="#F7DB1B"/>
</g>
<mask id="mask14_4_8013" style="mask-type:luminance" maskUnits="userSpaceOnUse" x="73" y="12" width="33" height="18">
<path d="M88.1068 22.5122C83.1068 19.2562 78.0775 17.3122 73.2642 16.5869C76.1922 15.3282 79.1188 14.0682 82.0455 12.8095C86.8588 13.5349 91.8882 15.4775 96.8882 18.7335C99.7748 20.6149 102.495 22.8309 105.02 25.3162C102.092 26.5749 99.1668 27.8349 96.2388 29.0935C93.7148 26.6095 90.9948 24.3922 88.1068 22.5122Z" fill="white"/>
</mask>
<g mask="url(#mask14_4_8013)">
<path d="M105.194 25.4882L96.4122 29.2655C95.9895 28.8455 95.5615 28.4335 95.1282 28.0295L103.908 24.2509C104.343 24.6562 104.771 25.0669 105.194 25.4882Z" fill="#F7DB1B"/>
<path d="M103.908 24.2509L95.1281 28.0295C94.6935 27.6242 94.2548 27.2269 93.8094 26.8389L102.589 23.0602C103.035 23.4495 103.475 23.8469 103.908 24.2509Z" fill="#F7D91A"/>
<path d="M102.59 23.0602L93.8095 26.8388C93.3482 26.4375 92.8815 26.0429 92.4095 25.6589L101.191 21.8815C101.663 22.2655 102.13 22.6589 102.59 23.0602Z" fill="#F8D61A"/>
<path d="M101.191 21.8815L92.4095 25.6588C91.9401 25.2762 91.4655 24.9015 90.9841 24.5375L99.7641 20.7602C100.245 21.1242 100.721 21.4975 101.191 21.8815Z" fill="#F9D41A"/>
<path d="M99.7642 20.7602L90.9842 24.5375C90.5468 24.2055 90.1055 23.8829 89.6588 23.5655L98.4401 19.7882C98.8855 20.1055 99.3282 20.4282 99.7642 20.7602Z" fill="#F9D11A"/>
<path d="M98.4401 19.7882L89.6588 23.5655C89.2134 23.2509 88.7628 22.9442 88.3081 22.6442L97.0894 18.8669C97.5441 19.1655 97.9934 19.4735 98.4401 19.7882Z" fill="#FACF1B"/>
<path d="M97.0894 18.8669L88.3081 22.6442C88.2414 22.6002 88.1748 22.5549 88.1068 22.5122C87.6001 22.1815 87.0921 21.8655 86.5854 21.5615L95.3668 17.7842C95.8734 18.0869 96.3801 18.4042 96.8881 18.7336C96.9548 18.7776 97.0228 18.8229 97.0894 18.8669Z" fill="#FACD1A"/>
<path d="M95.3668 17.7842L86.5855 21.5615C85.9868 21.2042 85.3894 20.8655 84.7921 20.5455L93.5734 16.7682C94.1708 17.0882 94.7681 17.4268 95.3668 17.7842Z" fill="#FACB1A"/>
<path d="M93.5735 16.7682L84.7921 20.5455C84.1841 20.2202 83.5748 19.9122 82.9681 19.6228L91.7481 15.8455C92.3561 16.1335 92.9641 16.4415 93.5735 16.7682Z" fill="#FAC81A"/>
<path d="M91.7482 15.8455L82.9682 19.6229C82.3429 19.3282 81.7188 19.0509 81.0948 18.7935L89.8762 15.0162C90.4988 15.2735 91.1229 15.5495 91.7482 15.8455Z" fill="#FBC51A"/>
<path d="M89.8762 15.0162L81.0949 18.7935C80.4575 18.5309 79.8202 18.2882 79.1855 18.0682L87.9669 14.2895C88.6015 14.5109 89.2375 14.7535 89.8762 15.0162Z" fill="#FBC21A"/>
<path d="M87.9668 14.2895L79.1855 18.0682C78.4975 17.8282 77.8108 17.6122 77.1268 17.4202L85.9082 13.6429C86.5922 13.8349 87.2775 14.0509 87.9668 14.2895Z" fill="#FBC01A"/>
<path d="M85.9081 13.6429L77.1268 17.4202C76.3974 17.2162 75.6694 17.0389 74.9468 16.8882L83.7268 13.1109C84.4508 13.2615 85.1774 13.4389 85.9081 13.6429Z" fill="#FBBF1A"/>
<path d="M83.7268 13.1108L74.9468 16.8882C74.1495 16.7229 73.3588 16.5909 72.5735 16.4909L81.3535 12.7135C82.1388 12.8135 82.9308 12.9442 83.7268 13.1108Z" fill="#FABC1A"/>
</g>
<mask id="mask15_4_8013" style="mask-type:luminance" maskUnits="userSpaceOnUse" x="98" y="83" width="26" height="27">
<path d="M98.2522 109.62C106.156 106.22 112.272 98.6308 114.816 87.5428L123.596 83.7655C121.054 94.8522 114.936 102.443 107.032 105.843C104.399 106.978 100.886 108.488 98.2522 109.62Z" fill="white"/>
</mask>
<g mask="url(#mask15_4_8013)">
<path d="M107.035 105.843L98.2535 109.62C100.568 108.624 102.732 107.268 104.696 105.57L113.476 101.791C111.512 103.491 109.35 104.846 107.035 105.843Z" fill="#FAB51B"/>
<path d="M113.476 101.791L104.696 105.57C105.534 104.846 106.333 104.059 107.095 103.212L115.876 99.4348C115.115 100.282 114.313 101.068 113.476 101.791Z" fill="#FAB71B"/>
<path d="M115.876 99.4348L107.095 103.212C107.698 102.544 108.274 101.836 108.824 101.092L117.606 97.3148C117.055 98.0575 116.478 98.7655 115.876 99.4348Z" fill="#FABA1A"/>
<path d="M117.606 97.3149L108.824 101.092C109.3 100.448 109.756 99.7775 110.191 99.0789L118.972 95.3015C118.538 96.0002 118.082 96.6709 117.606 97.3149Z" fill="#FABC1A"/>
<path d="M118.972 95.3015L110.191 99.0788C110.58 98.4562 110.952 97.8108 111.307 97.1442L120.087 93.3669C119.732 94.0335 119.36 94.6775 118.972 95.3015Z" fill="#FBBF1A"/>
<path d="M120.087 93.3668L111.307 97.1442C111.632 96.5322 111.943 95.9002 112.239 95.2522L121.02 91.4749C120.724 92.1229 120.412 92.7548 120.087 93.3668Z" fill="#FBC01A"/>
<path d="M121.02 91.4749L112.239 95.2522C112.524 94.6282 112.794 93.9882 113.05 93.3309L121.831 89.5535C121.575 90.2109 121.304 90.8509 121.02 91.4749Z" fill="#FBC21A"/>
<path d="M121.831 89.5535L113.05 93.3308C113.294 92.7042 113.524 92.0615 113.742 91.4055L122.522 87.6282C122.306 88.2842 122.075 88.9269 121.831 89.5535Z" fill="#FBC51A"/>
<path d="M122.522 87.6282L113.742 91.4055C113.952 90.7668 114.151 90.1135 114.335 89.4468L123.116 85.6695C122.931 86.3362 122.734 86.9895 122.522 87.6282Z" fill="#FAC81A"/>
<path d="M123.116 85.6695L114.335 89.4468C114.508 88.8255 114.668 88.1895 114.816 87.5428L123.596 83.7655C123.448 84.4122 123.288 85.0469 123.116 85.6695Z" fill="#FACB1A"/>
</g>
<path d="M50.6201 34.7589C56.3441 12.1015 76.8214 3.40285 95.3667 17.7842C112.724 31.2442 123.401 61.7162 120.143 83.0322C116.704 105.518 98.7467 115.55 79.0027 103.564C57.7574 90.6668 44.5374 58.8309 50.6201 34.7589Z" fill="#F39B16"/>
<path d="M69.4387 52.1962L65.3347 54.3895L66.5067 49.2842L70.6107 47.0895L69.4387 52.1962Z" fill="#C78518"/>
<path d="M70.6107 47.0895L66.4094 49.3175L59.8374 45.0375L64.0387 42.8095L70.6107 47.0895Z" fill="#C78518"/>
<path d="M74.3734 59.6215L82.3361 64.8082L84.1134 57.0575C84.8281 53.9442 85.0667 50.2695 81.6294 48.0295C78.1987 45.7949 76.9014 48.5989 76.1507 51.8722L74.3734 59.6215ZM98.6081 65.5549C99.4467 61.9002 99.6401 57.9429 95.6334 55.3309C91.5374 52.6642 90.1361 56.1482 89.2601 59.9615L87.3934 68.1029L96.6414 74.1255L98.6081 65.5549ZM88.0907 48.7962C90.0161 45.4002 93.2974 44.0282 98.0134 47.1002C102.888 50.2749 105.329 55.5015 105.619 60.9482L113.371 65.9975L111.587 73.7775L104.568 69.2082L103.397 74.3149L110.415 78.8855L108.628 86.6749L101.611 82.1042L100.655 86.2695L66.6961 64.1522L67.6521 59.9869L61.0801 55.7069L62.8681 47.9162L69.4387 52.1962L70.6107 47.0895L64.0387 42.8095L65.8241 35.0295L73.3574 39.9375C75.3894 37.1749 78.3681 36.3762 82.2974 38.9349C85.5867 41.0775 87.5761 44.8135 88.0907 48.7962Z" fill="#FBCD26"/>
<path d="M64.0387 42.8095L59.8374 45.0375L61.6227 37.2575L65.8241 35.0295L64.0387 42.8095Z" fill="#C78518"/>
<path d="M66.6962 64.1522L62.4895 66.3815L63.4442 62.2162L67.6522 59.9868L66.6962 64.1522Z" fill="#C78518"/>
<path d="M100.655 86.2695L96.4748 88.4895L62.5161 66.3722L66.6961 64.1522L100.655 86.2695Z" fill="#C78518"/>
<path d="M67.6521 59.9869L63.3841 62.2362L56.8121 57.9549L61.0801 55.7069L67.6521 59.9869Z" fill="#C78518"/>
<path d="M61.0801 55.7069L56.8121 57.9549L58.5868 50.1282L62.8681 47.9162L61.0801 55.7069Z" fill="#C78518"/>
<mask id="mask16_4_8013" style="mask-type:luminance" maskUnits="userSpaceOnUse" x="32" y="2" width="31" height="33">
<path d="M53.7948 6.33088L62.5748 2.55354C52.6028 6.84421 44.8895 16.4229 41.6801 30.4095L32.8988 34.1882C36.1081 20.2002 43.8228 10.6216 53.7948 6.33088Z" fill="white"/>
</mask>
<g mask="url(#mask16_4_8013)">
<path d="M41.6801 30.4095L32.8988 34.1882C33.0868 33.3722 33.2881 32.5695 33.5068 31.7842L42.2868 28.0055C42.0695 28.7922 41.8668 29.5949 41.6801 30.4095Z" fill="#FACB1A"/>
<path d="M42.2868 28.0055L33.5068 31.7842C33.7388 30.9429 33.9895 30.1175 34.2562 29.3122L43.0362 25.5348C42.7695 26.3402 42.5202 27.1642 42.2868 28.0055Z" fill="#FAC81A"/>
<path d="M43.0361 25.5348L34.2561 29.3122C34.5294 28.4842 34.8201 27.6722 35.1281 26.8828L43.9094 23.1055C43.6014 23.8948 43.3108 24.7055 43.0361 25.5348Z" fill="#FBC51A"/>
<path d="M43.9095 23.1055L35.1282 26.8828C35.4522 26.0535 35.7922 25.2455 36.1508 24.4589L44.9322 20.6802C44.5735 21.4682 44.2322 22.2762 43.9095 23.1055Z" fill="#FBC21A"/>
<path d="M44.9322 20.6802L36.1509 24.4589C36.5242 23.6402 36.9175 22.8428 37.3282 22.0695L46.1095 18.2922C45.6989 19.0655 45.3055 19.8629 44.9322 20.6802Z" fill="#FBC01A"/>
<path d="M46.1095 18.2922L37.3281 22.0695C37.7761 21.2295 38.2455 20.4148 38.7348 19.6295L47.5161 15.8508C47.0255 16.6375 46.5561 17.4508 46.1095 18.2922Z" fill="#FBBF1A"/>
<path d="M47.5162 15.8509L38.7349 19.6295C39.2842 18.7482 39.8602 17.9015 40.4602 17.0895L49.2402 13.3122C48.6402 14.1229 48.0655 14.9709 47.5162 15.8509Z" fill="#FABC1A"/>
<path d="M49.2402 13.3122L40.4602 17.0895C41.1535 16.1508 41.8815 15.2588 42.6415 14.4148L51.4215 10.6375C50.6629 11.4815 49.9349 12.3735 49.2402 13.3122Z" fill="#FABA1A"/>
<path d="M51.4215 10.6375L42.6415 14.4149C43.6015 13.3469 44.6122 12.3549 45.6682 11.4429L54.4495 7.66421C53.3935 8.57754 52.3828 9.56818 51.4215 10.6375Z" fill="#FAB71B"/>
<path d="M54.4495 7.66419L45.6682 11.4428C48.1455 9.29884 50.8735 7.5882 53.7949 6.33086L62.5749 2.55352C59.6535 3.81085 56.9255 5.52153 54.4495 7.66419Z" fill="#FAB51B"/>
</g>
<mask id="mask17_4_8013" style="mask-type:luminance" maskUnits="userSpaceOnUse" x="31" y="30" width="82" height="95">
<path d="M112.176 117.795L103.396 121.572C92.7829 126.139 79.6162 124.715 66.6055 116.24C41.3615 99.7975 26.2748 63.0642 32.8989 34.1882L41.6802 30.4095C35.0562 59.2855 50.1429 96.0202 75.3869 112.462C88.3962 120.936 101.564 122.36 112.176 117.795Z" fill="white"/>
</mask>
<g mask="url(#mask17_4_8013)">
<path d="M112.176 117.795L103.396 121.572C100.438 122.844 97.2816 123.652 93.9856 123.971L102.766 120.194C106.063 119.875 109.219 119.067 112.176 117.795Z" fill="#FAB51B"/>
<path d="M102.766 120.193L93.9855 123.971C92.5602 124.11 91.1082 124.156 89.6335 124.109L98.4149 120.331C99.8882 120.379 101.34 120.331 102.766 120.193Z" fill="#FAB71B"/>
<path d="M98.4149 120.331L89.6335 124.11C88.5029 124.074 87.3575 123.983 86.2029 123.835L94.9829 120.058C96.1389 120.206 97.2829 120.295 98.4149 120.331Z" fill="#FABA1A"/>
<path d="M94.9829 120.058L86.2029 123.835C85.2123 123.711 84.2136 123.543 83.2083 123.334L91.9896 119.556C92.9949 119.766 93.9923 119.932 94.9829 120.058Z" fill="#FABC1A"/>
<path d="M91.9895 119.556L83.2082 123.334C82.2962 123.146 81.3788 122.921 80.4562 122.663L89.2375 118.886C90.1588 119.144 91.0775 119.368 91.9895 119.556Z" fill="#FBBF1A"/>
<path d="M89.2376 118.886L80.4562 122.663C79.5949 122.422 78.7296 122.15 77.8602 121.846L86.6416 118.068C87.5096 118.372 88.3749 118.644 89.2376 118.886Z" fill="#FBC01A"/>
<path d="M86.6416 118.068L77.8603 121.846C77.0589 121.567 76.2563 121.262 75.4509 120.931L84.2309 117.154C85.0363 117.484 85.8403 117.79 86.6416 118.068Z" fill="#FBC21A"/>
<path d="M84.2308 117.154L75.4508 120.931C74.6642 120.607 73.8775 120.258 73.0895 119.884L81.8695 116.107C82.6575 116.48 83.4455 116.83 84.2308 117.154Z" fill="#FBC51A"/>
<path d="M81.8695 116.107L73.0895 119.884C72.3215 119.52 71.5549 119.132 70.7869 118.72L79.5669 114.943C80.3362 115.355 81.1029 115.743 81.8695 116.107Z" fill="#FAC81A"/>
<path d="M79.5669 114.943L70.7869 118.72C70.0335 118.318 69.2788 117.89 68.5255 117.439L77.3068 113.662C78.0602 114.111 78.8149 114.539 79.5669 114.943Z" fill="#FACB1A"/>
<path d="M77.3068 113.662L68.5255 117.439C67.8855 117.056 67.2455 116.658 66.6055 116.24C66.5202 116.184 66.4362 116.13 66.3508 116.074L75.1322 112.295C75.2162 112.351 75.3015 112.407 75.3868 112.462C76.0255 112.879 76.6655 113.278 77.3068 113.662Z" fill="#FACD1A"/>
<path d="M75.1322 112.295L66.3508 116.074C65.7775 115.695 65.2082 115.307 64.6455 114.908L73.4255 111.131C73.9895 111.53 74.5575 111.918 75.1322 112.295Z" fill="#FACF1B"/>
<path d="M73.4255 111.131L64.6455 114.908C64.0815 114.51 63.5242 114.102 62.9722 113.682L71.7522 109.904C72.3042 110.323 72.8628 110.731 73.4255 111.131Z" fill="#F9D11A"/>
<path d="M71.7522 109.904L62.9722 113.682C62.3642 113.222 61.7642 112.75 61.1709 112.267L69.9522 108.49C70.5442 108.972 71.1456 109.443 71.7522 109.904Z" fill="#F9D41A"/>
<path d="M69.9522 108.49L61.1708 112.267C60.5748 111.78 59.9855 111.283 59.4042 110.776L68.1842 106.998C68.7669 107.506 69.3562 108.003 69.9522 108.49Z" fill="#F8D61A"/>
<path d="M68.1842 106.998L59.4042 110.776C58.8429 110.284 58.2869 109.783 57.7389 109.274L66.5202 105.496C67.0682 106.006 67.6229 106.507 68.1842 106.998Z" fill="#F7D91A"/>
<path d="M66.5202 105.496L57.7389 109.274C57.1922 108.763 56.6509 108.243 56.1176 107.713L64.8989 103.936C65.4322 104.464 65.9722 104.985 66.5202 105.496Z" fill="#F7DB1B"/>
<path d="M64.8988 103.936L56.1175 107.714C55.5962 107.196 55.0815 106.668 54.5735 106.134L63.3548 102.356C63.8628 102.891 64.3775 103.418 64.8988 103.936Z" fill="#F7DC1B"/>
<path d="M63.3548 102.356L54.5735 106.134C54.0668 105.6 53.5668 105.058 53.0748 104.507L61.8548 100.728C62.3482 101.279 62.8482 101.823 63.3548 102.356Z" fill="#F6DF1C"/>
<path d="M61.8548 100.728L53.0748 104.507C52.5802 103.954 52.0922 103.394 51.6122 102.826L60.3935 99.0468C60.8735 99.6148 61.3615 100.176 61.8548 100.728Z" fill="#F6E21C"/>
<path d="M60.3935 99.0468L51.6121 102.826C51.1321 102.255 50.6575 101.677 50.1921 101.093L58.9721 97.3162C59.4388 97.9002 59.9121 98.4775 60.3935 99.0468Z" fill="#F5E41C"/>
<path d="M58.9722 97.3162L50.1922 101.093C49.7109 100.491 49.2376 99.8788 48.7722 99.2602L57.5536 95.4828C58.0189 96.1015 58.4922 96.7122 58.9722 97.3162Z" fill="#F6EC32"/>
<path d="M57.5535 95.4828L48.7721 99.2602C48.3015 98.6322 47.8375 97.9975 47.3828 97.3548L56.1641 93.5762C56.6188 94.2202 57.0815 94.8548 57.5535 95.4828Z" fill="#F6EF40"/>
<path d="M56.1641 93.5762L47.3828 97.3549C46.8828 96.6495 46.3935 95.9348 45.9148 95.2122L54.6961 91.4348C55.1748 92.1575 55.6641 92.8722 56.1641 93.5762Z" fill="#F6F04B"/>
<path d="M54.6961 91.4348L45.9148 95.2122C45.4148 94.4575 44.9255 93.6948 44.4495 92.9228L53.2295 89.1455C53.7068 89.9162 54.1961 90.6788 54.6961 91.4348Z" fill="#F6F256"/>
<path d="M53.2295 89.1455L44.4495 92.9228C43.8402 91.9375 43.2495 90.9388 42.6775 89.9282L51.4588 86.1508C52.0308 87.1615 52.6202 88.1602 53.2295 89.1455Z" fill="#F6F460"/>
<path d="M51.4588 86.1508L42.6775 89.9282C41.8735 88.5028 41.1081 87.0548 40.3815 85.5855L49.1628 81.8082C49.8895 83.2775 50.6548 84.7255 51.4588 86.1508Z" fill="#F8F467"/>
<path d="M49.1628 81.8082L40.3815 85.5855C38.9428 82.6735 37.6575 79.6802 36.5415 76.6335L45.3228 72.8562C46.4388 75.9029 47.7228 78.8962 49.1628 81.8082Z" fill="#F8F470"/>
<path d="M45.3229 72.8562L36.5415 76.6335C35.9775 75.0909 35.4549 73.5349 34.9775 71.9695L43.7575 68.1909C44.2349 69.7575 44.7575 71.3135 45.3229 72.8562Z" fill="#F8F467"/>
<path d="M43.7575 68.1909L34.9775 71.9695C34.6509 70.9015 34.3455 69.8295 34.0629 68.7535L42.8429 64.9762C43.1269 66.0522 43.4322 67.1229 43.7575 68.1909Z" fill="#F6F460"/>
<path d="M42.8429 64.9762L34.0629 68.7535C33.8122 67.8069 33.5789 66.8562 33.3616 65.9042L42.1429 62.1268C42.3602 63.0788 42.5922 64.0295 42.8429 64.9762Z" fill="#F6F256"/>
<path d="M42.1428 62.1269L33.3615 65.9042C33.1775 65.0962 33.0055 64.2855 32.8455 63.4749L41.6255 59.6975C41.7868 60.5069 41.9575 61.3189 42.1428 62.1269Z" fill="#F6F04B"/>
<path d="M41.6255 59.6975L32.8455 63.4748C32.6882 62.6762 32.5429 61.8775 32.4095 61.0775L41.1895 57.3002C41.3229 58.1002 41.4682 58.8988 41.6255 59.6975Z" fill="#F6EF40"/>
<path d="M41.1896 57.3002L32.4096 61.0775C32.2842 60.3295 32.1696 59.5802 32.0669 58.8308L40.8469 55.0535C40.9509 55.8028 41.0656 56.5522 41.1896 57.3002Z" fill="#F6EC32"/>
<path d="M40.8469 55.0535L32.0669 58.8308C31.9629 58.0842 31.8709 57.3362 31.7882 56.5895L40.5696 52.8122C40.6509 53.5588 40.7442 54.3068 40.8469 55.0535Z" fill="#F5E41C"/>
<path d="M40.5695 52.8122L31.7882 56.5895C31.7082 55.8522 31.6389 55.1148 31.5789 54.3802L40.3602 50.6028C40.4189 51.3375 40.4895 52.0748 40.5695 52.8122Z" fill="#F6E21C"/>
<path d="M40.3601 50.6028L31.5788 54.3802C31.5201 53.6428 31.4721 52.9069 31.4348 52.1722L40.2148 48.3949C40.2521 49.1295 40.3015 49.8655 40.3601 50.6028Z" fill="#F6DF1C"/>
<path d="M40.2149 48.3949L31.4349 52.1722C31.3962 51.4309 31.3695 50.6882 31.3549 49.9469L40.1349 46.1695C40.1509 46.9095 40.1775 47.6522 40.2149 48.3949Z" fill="#F7DC1B"/>
<path d="M40.1349 46.1695L31.3548 49.9469C31.3402 49.2069 31.3362 48.4682 31.3428 47.7309L40.1242 43.9535C40.1162 44.6909 40.1202 45.4295 40.1349 46.1695Z" fill="#F7DB1B"/>
<path d="M40.1242 43.9535L31.3429 47.7309C31.3509 46.9709 31.3709 46.2135 31.4042 45.4562L40.1856 41.6788C40.1522 42.4362 40.1322 43.1935 40.1242 43.9535Z" fill="#F7D91A"/>
<path d="M40.1855 41.6789L31.4042 45.4562C31.4375 44.7002 31.4828 43.9455 31.5402 43.1949L40.3215 39.4175C40.2628 40.1682 40.2175 40.9229 40.1855 41.6789Z" fill="#F8D61A"/>
<path d="M40.3215 39.4175L31.5402 43.1948C31.6015 42.4175 31.6748 41.6428 31.7628 40.8722L40.5428 37.0948C40.4548 37.8655 40.3815 38.6402 40.3215 39.4175Z" fill="#F9D41A"/>
<path d="M40.5428 37.0948L31.7628 40.8722C31.8508 40.1002 31.9522 39.3308 32.0682 38.5655L40.8482 34.7882C40.7322 35.5535 40.6308 36.3215 40.5428 37.0948Z" fill="#F9D11A"/>
<path d="M40.8482 34.7882L32.0682 38.5655C32.1762 37.8482 32.2989 37.1335 32.4322 36.4242L41.2136 32.6455C41.0789 33.3562 40.9576 34.0708 40.8482 34.7882Z" fill="#FACF1B"/>
<path d="M41.2135 32.6455L32.4321 36.4242C32.5655 35.7135 32.7121 35.0068 32.8721 34.3055L41.6521 30.5282C41.4935 31.2295 41.3468 31.9362 41.2135 32.6455Z" fill="#FACD1A"/>
<path d="M41.6522 30.5282L32.8722 34.3055C32.8815 34.2668 32.8909 34.2269 32.8989 34.1882L41.6802 30.4095C41.6709 30.4495 41.6615 30.4895 41.6522 30.5282Z" fill="#FACB1A"/>
</g>
<path d="M123.596 83.7655C128.848 60.8762 116.881 31.7575 96.8881 18.7336C76.8854 5.70688 56.4161 13.6989 51.1641 36.5882C45.9134 59.4775 57.8708 88.5909 77.8734 101.618C97.8681 114.642 118.345 106.655 123.596 83.7655ZM41.6801 30.4095C48.3041 1.53486 74.1321 -8.55179 99.3748 7.89088C124.611 24.3269 139.697 61.0602 133.073 89.9375C126.449 118.814 100.62 128.898 75.3868 112.462C50.1428 96.0202 35.0561 59.2855 41.6801 30.4095Z" fill="#FAB71B"/>
</svg>
