<svg width="60" height="64" viewBox="0 0 60 64" fill="none" xmlns="http://www.w3.org/2000/svg">
<path d="M53.9952 51.4189C53.7552 50.0536 44.0819 38.8016 32.3939 26.2923C20.7019 13.7776 11.4179 4.74028 11.6579 6.10695C11.8992 7.47228 21.5725 18.7243 33.2659 31.239C44.9525 43.7483 54.2352 52.7856 53.9952 51.4189Z" fill="#F0A217"/>
<mask id="mask0_4_8010" style="mask-type:luminance" maskUnits="userSpaceOnUse" x="0" y="0" width="60" height="64">
<path d="M59.5153 57.5016L53.4073 63.1749C52.7487 63.7869 41.4047 52.6869 27.2713 37.5589C12.5153 21.7656 0.30999 7.56828 0.0059903 5.84428C-0.00734303 5.77228 0.00198118 5.7229 0.0299812 5.69624L6.13799 0.0242307C6.10999 0.0508973 6.10063 0.100278 6.11396 0.172278C6.41796 1.89628 18.622 16.0923 33.378 31.8869C47.5127 47.0136 58.8566 58.1136 59.5153 57.5016Z" fill="white"/>
</mask>
<g mask="url(#mask0_4_8010)">
<path d="M59.5153 57.5016L53.4073 63.1749C53.242 63.3283 52.406 62.7456 51.0247 61.5496L57.1327 55.8776C58.514 57.0736 59.35 57.6563 59.5153 57.5016Z" fill="#FBC01A"/>
<path d="M57.1326 55.8776L51.0246 61.5496C50.6992 61.2683 50.3432 60.9536 49.9592 60.6056L56.0672 54.9323C56.4512 55.2803 56.8072 55.5963 57.1326 55.8776Z" fill="#FBC11A"/>
<path d="M56.0673 54.9323L49.9593 60.6057C49.6606 60.335 49.3459 60.0456 49.0139 59.7363L55.1219 54.0643C55.4539 54.3723 55.7686 54.663 56.0673 54.9323Z" fill="#FBC21A"/>
<path d="M55.122 54.0643L49.014 59.7363C48.7246 59.4683 48.4233 59.187 48.11 58.8896L54.218 53.2163C54.5313 53.5136 54.8326 53.7963 55.122 54.0643Z" fill="#FBC41A"/>
<path d="M54.2179 53.2163L48.1099 58.8896C47.8219 58.6176 47.5259 58.335 47.2192 58.0417L53.3272 52.3683C53.6339 52.663 53.9312 52.9457 54.2179 53.2163Z" fill="#FBC51A"/>
<path d="M53.3273 52.3683L47.2193 58.0417C46.9406 57.7737 46.6553 57.4977 46.3606 57.2123L52.4686 51.539C52.7633 51.8244 53.0486 52.1016 53.3273 52.3683Z" fill="#FAC81A"/>
<path d="M52.4686 51.539L46.3606 57.2123C46.0806 56.9403 45.7926 56.6616 45.4979 56.3736L51.6059 50.7003C51.9006 50.9883 52.1886 51.2683 52.4686 51.539Z" fill="#FAC91A"/>
<path d="M51.606 50.7003L45.498 56.3736C45.214 56.0963 44.926 55.8109 44.6287 55.5189L50.7367 49.8456C51.034 50.1376 51.322 50.423 51.606 50.7003Z" fill="#FACB1A"/>
<path d="M50.7366 49.8456L44.6285 55.5189C44.3472 55.2403 44.0606 54.9563 43.7686 54.667L49.8766 48.9936C50.1686 49.2843 50.4552 49.5683 50.7366 49.8456Z" fill="#FACC1A"/>
<path d="M49.8765 48.9936L43.7685 54.667C43.4792 54.379 43.1845 54.0856 42.8845 53.787L48.9925 48.1123C49.2925 48.4136 49.5872 48.707 49.8765 48.9936Z" fill="#FACD1A"/>
<path d="M48.9926 48.1123L42.8846 53.7869C42.5966 53.4963 42.302 53.2029 42.0033 52.9016L48.1113 47.2296C48.41 47.5296 48.7046 47.8243 48.9926 48.1123Z" fill="#FACF1B"/>
<path d="M48.1113 47.2296L42.0032 52.9016C41.7072 52.6029 41.4046 52.299 41.0992 51.9896L47.2086 46.3176C47.5126 46.6256 47.8153 46.9296 48.1113 47.2296Z" fill="#F9D11A"/>
<path d="M47.2086 46.3176L41.0993 51.9896C40.7993 51.687 40.4953 51.3776 40.1886 51.0656L46.2953 45.3923C46.6033 45.7056 46.9073 46.0136 47.2086 46.3176Z" fill="#F9D21A"/>
<path d="M46.2953 45.3923L40.1886 51.0656C39.882 50.7549 39.574 50.4403 39.262 50.1203L45.37 44.4483C45.682 44.767 45.99 45.083 46.2953 45.3923Z" fill="#F9D41A"/>
<path d="M45.3699 44.4483L39.2619 50.1203C38.9579 49.811 38.6526 49.4963 38.3406 49.1777L44.4486 43.5057C44.7606 43.8243 45.0659 44.139 45.3699 44.4483Z" fill="#F9D51A"/>
<path d="M44.4486 43.5057L38.3406 49.1777C38.0406 48.8683 37.7339 48.555 37.4272 48.2376L43.5353 42.5643C43.8419 42.8817 44.1486 43.1963 44.4486 43.5057Z" fill="#F8D61A"/>
<path d="M43.5352 42.5643L37.4272 48.2376C37.1459 47.9483 36.8632 47.6563 36.5779 47.3603L42.6859 41.6883C42.9712 41.9829 43.2539 42.275 43.5352 42.5643Z" fill="#F7D91A"/>
<path d="M42.686 41.6883L36.578 47.3603C36.2913 47.0656 36.0033 46.767 35.7126 46.4656L41.822 40.7923C42.1113 41.0937 42.3993 41.3923 42.686 41.6883Z" fill="#F7DA1B"/>
<path d="M41.8219 40.7923L35.7126 46.4656C35.4886 46.2323 35.2646 45.9976 35.0366 45.7603L41.1446 40.0883C41.3726 40.3243 41.5979 40.5603 41.8219 40.7923Z" fill="#F7DB1B"/>
<path d="M41.1446 40.0882L35.0366 45.7603C34.8113 45.5269 34.5859 45.2909 34.3579 45.0536L40.4659 39.3803C40.6939 39.6176 40.9193 39.8536 41.1446 40.0882Z" fill="#F7DC1B"/>
<path d="M40.4659 39.3803L34.3579 45.0536C34.1299 44.8163 33.9019 44.5777 33.6713 44.3363L39.7793 38.6643C40.0099 38.9043 40.2379 39.143 40.4659 39.3803Z" fill="#F6DE1C"/>
<path d="M39.7793 38.6643L33.6713 44.3363C33.5126 44.1696 33.354 44.0029 33.194 43.8349L39.302 38.1616C39.462 38.3296 39.6207 38.4976 39.7793 38.6643Z" fill="#F6DF1C"/>
<path d="M39.302 38.1617L33.1939 43.835C33.0339 43.667 32.8726 43.499 32.71 43.3283L38.8193 37.6563C38.9806 37.8256 39.142 37.995 39.302 38.1617Z" fill="#F6E21C"/>
<path d="M38.8193 37.6563L32.71 43.3283C32.55 43.159 32.3873 42.9896 32.226 42.8176L38.3326 37.1456C38.4953 37.3163 38.6579 37.487 38.8193 37.6563Z" fill="#F6E31C"/>
<path d="M38.3326 37.1456L32.2259 42.8176C32.0632 42.647 31.9006 42.4763 31.7366 42.303L37.8446 36.631C38.0072 36.803 38.1712 36.975 38.3326 37.1456Z" fill="#F5E41C"/>
<path d="M37.8446 36.631L31.7366 42.303C31.6059 42.1656 31.4753 42.0269 31.3433 41.8883L37.4512 36.2163C37.5832 36.355 37.7139 36.4923 37.8446 36.631Z" fill="#F6E725"/>
<path d="M37.4512 36.2163L31.3432 41.8882C31.2245 41.7629 31.1059 41.6389 30.9885 41.5123L37.0965 35.8403C37.2139 35.9656 37.3325 36.091 37.4512 36.2163Z" fill="#F6EA2C"/>
<path d="M37.0967 35.8403L30.9887 41.5123C30.87 41.3869 30.75 41.2603 30.6313 41.1349L36.7394 35.4616C36.858 35.5883 36.978 35.7149 37.0967 35.8403Z" fill="#F6EC32"/>
<path d="M36.7392 35.4616L30.6312 41.1349C30.5112 41.0083 30.3912 40.8816 30.2712 40.7549L36.3792 35.083C36.4992 35.2097 36.6192 35.3363 36.7392 35.4616Z" fill="#F6ED36"/>
<path d="M36.3793 35.083L30.2712 40.7549C30.1526 40.6283 30.0326 40.5003 29.9113 40.3723L36.0192 34.7003C36.1406 34.8283 36.2606 34.9563 36.3793 35.083Z" fill="#F6EE3B"/>
<path d="M36.0193 34.7003L29.9113 40.3723C29.7913 40.2456 29.6699 40.1176 29.5486 39.9896L35.6566 34.3163C35.7779 34.4443 35.8993 34.5723 36.0193 34.7003Z" fill="#F6EE3E"/>
<path d="M35.6566 34.3163L29.5486 39.9896C29.4419 39.875 29.334 39.7603 29.226 39.6456L35.334 33.9723C35.442 34.087 35.5499 34.2017 35.6566 34.3163Z" fill="#F6EF42"/>
<path d="M35.334 33.9723L29.226 39.6456C29.122 39.5336 29.0179 39.4243 28.9139 39.3123L35.0219 33.6403C35.1259 33.751 35.23 33.8617 35.334 33.9723Z" fill="#F6F046"/>
<path d="M35.0219 33.6403L28.9139 39.3123C28.8112 39.203 28.7059 39.091 28.6006 38.9804L34.7099 33.307C34.8139 33.419 34.9179 33.5296 35.0219 33.6403Z" fill="#F6F049"/>
<path d="M34.7099 33.3069L28.6006 38.9803C28.4966 38.8696 28.3926 38.7576 28.2872 38.6456L34.3952 32.9736C34.5006 33.0842 34.6046 33.1962 34.7099 33.3069Z" fill="#F6F14C"/>
<path d="M34.3952 32.9736L28.2872 38.6456C28.1832 38.5336 28.0779 38.4216 27.9739 38.3096L34.0805 32.6363C34.1859 32.7497 34.2912 32.8616 34.3952 32.9736Z" fill="#F6F14F"/>
<path d="M34.0806 32.6363L27.974 38.3096C27.8686 38.1976 27.7633 38.0857 27.6566 37.9723L33.766 32.299C33.8713 32.4123 33.9766 32.5243 34.0806 32.6363Z" fill="#F6F252"/>
<path d="M33.7659 32.299L27.6566 37.9724C27.5512 37.8604 27.4459 37.747 27.3406 37.6337L33.4486 31.9603C33.5539 32.0736 33.6592 32.187 33.7659 32.299Z" fill="#F6F256"/>
<path d="M33.4486 31.9602L27.3406 37.6336C27.318 37.6083 27.294 37.5843 27.2713 37.5589C27.1753 37.4563 27.0793 37.3536 26.9833 37.2509L33.0913 31.5789C33.1873 31.6816 33.2833 31.7843 33.378 31.8869C33.402 31.9109 33.4259 31.9362 33.4486 31.9602Z" fill="#F6F358"/>
<path d="M33.0912 31.579L26.9832 37.251C26.8606 37.1203 26.7379 36.9883 26.6152 36.8576L32.7232 31.1843C32.8459 31.315 32.9686 31.447 33.0912 31.579Z" fill="#F6F35B"/>
<path d="M32.7233 31.1843L26.6153 36.8576C26.4927 36.7256 26.3727 36.595 26.25 36.4643L32.358 30.7909C32.4807 30.9229 32.6007 31.0536 32.7233 31.1843Z" fill="#F7F25E"/>
<path d="M32.3579 30.7909L26.2499 36.4643C26.1272 36.3336 26.0059 36.2029 25.8845 36.0709L31.9925 30.3989C32.1139 30.5296 32.2352 30.6603 32.3579 30.7909Z" fill="#F7F360"/>
<path d="M31.9926 30.399L25.8846 36.071C25.7633 35.9417 25.642 35.811 25.5206 35.6804L31.6286 30.0084C31.75 30.1377 31.8713 30.2683 31.9926 30.399Z" fill="#F8F263"/>
<path d="M31.6286 30.0084L25.5206 35.6804C25.3993 35.5497 25.278 35.4203 25.158 35.2897L31.266 29.6177C31.386 29.747 31.5073 29.8777 31.6286 30.0084Z" fill="#F8F466"/>
<path d="M31.2659 29.6176L25.1579 35.2896C24.9246 35.0376 24.6912 34.787 24.4592 34.5363L30.5672 28.8629C30.7992 29.1136 31.0326 29.3656 31.2659 29.6176Z" fill="#F8F469"/>
<path d="M30.5673 28.8629L24.4592 34.5363C24.1952 34.251 23.9326 33.9657 23.6699 33.683L29.7779 28.011C30.0406 28.2937 30.3033 28.5776 30.5673 28.8629Z" fill="#F8F36B"/>
<path d="M29.778 28.011L23.67 33.683C23.0047 32.9617 22.346 32.2456 21.6953 31.5363L27.8033 25.8643C28.454 26.5736 29.1127 27.2896 29.778 28.011Z" fill="#F8F56F"/>
<path d="M27.8033 25.8643L21.6953 31.5363C21.3607 31.1723 21.0287 30.8083 20.698 30.447L26.806 24.775C27.1367 25.1363 27.4687 25.499 27.8033 25.8643Z" fill="#F8F36B"/>
<path d="M26.8059 24.775L20.6979 30.447C20.5606 30.2963 20.4232 30.1456 20.2859 29.9962L26.3939 24.3242C26.5312 24.4736 26.6686 24.6243 26.8059 24.775Z" fill="#F8F469"/>
<path d="M26.3939 24.3243L20.2859 29.9963C20.1499 29.8469 20.0139 29.6976 19.8766 29.5483L25.9859 23.875C26.1219 24.0243 26.2579 24.1749 26.3939 24.3243Z" fill="#F8F466"/>
<path d="M25.986 23.875L19.8767 29.5483C19.742 29.3989 19.606 29.2509 19.4713 29.1016L25.5793 23.4296C25.714 23.5776 25.85 23.727 25.986 23.875Z" fill="#F8F263"/>
<path d="M25.5793 23.4296L19.4713 29.1016C19.3366 28.9536 19.2019 28.8056 19.0673 28.6576L25.1753 22.9856C25.3099 23.1336 25.4446 23.2816 25.5793 23.4296Z" fill="#F7F360"/>
<path d="M25.1753 22.9856L19.0673 28.6576C18.942 28.5203 18.8166 28.3816 18.6926 28.2443L24.7993 22.5709C24.9246 22.7083 25.05 22.8469 25.1753 22.9856Z" fill="#F7F25E"/>
<path d="M24.7993 22.571L18.6927 28.2443C18.5847 28.1243 18.4767 28.0056 18.37 27.8883L24.4767 22.215C24.5847 22.3336 24.6927 22.4523 24.7993 22.571Z" fill="#F6F35B"/>
<path d="M24.4766 22.2149L18.3699 27.8882C18.2619 27.7696 18.1552 27.651 18.0472 27.5336L24.1552 21.8616C24.2632 21.979 24.3699 22.0963 24.4766 22.2149Z" fill="#F6F358"/>
<path d="M24.1553 21.8616L18.0473 27.5336C17.9406 27.4163 17.834 27.2989 17.7286 27.1816L23.8366 21.5083C23.942 21.6256 24.0486 21.743 24.1553 21.8616Z" fill="#F6F256"/>
<path d="M23.8366 21.5083L17.7286 27.1816C17.6219 27.0643 17.5166 26.9456 17.4113 26.8296L23.5192 21.1563C23.6246 21.2736 23.7299 21.391 23.8366 21.5083Z" fill="#F6F252"/>
<path d="M23.5193 21.1563L17.4114 26.8296C17.306 26.7123 17.2007 26.5963 17.0967 26.4789L23.2047 20.8069C23.3087 20.9243 23.414 21.0403 23.5193 21.1563Z" fill="#F6F14F"/>
<path d="M23.2046 20.8069L17.0966 26.4789C16.9886 26.3616 16.8819 26.2429 16.7753 26.1243L22.8832 20.4523C22.9899 20.5696 23.0979 20.6883 23.2046 20.8069Z" fill="#F6F14C"/>
<path d="M22.8833 20.4523L16.7754 26.1243C16.658 25.9936 16.5407 25.8629 16.4233 25.7323L22.5313 20.0603C22.6487 20.1909 22.766 20.3216 22.8833 20.4523Z" fill="#F6F049"/>
<path d="M22.5313 20.0602L16.4233 25.7322C16.3059 25.6016 16.1886 25.4722 16.0726 25.3429L22.1793 19.6696C22.2966 19.7989 22.414 19.9296 22.5313 20.0602Z" fill="#F6F046"/>
<path d="M22.1793 19.6696L16.0726 25.343C15.9553 25.2123 15.8393 25.083 15.7233 24.9536L21.8313 19.2816C21.9473 19.411 22.0633 19.5403 22.1793 19.6696Z" fill="#F6EF42"/>
<path d="M21.8312 19.2816L15.7232 24.9536C15.6072 24.8256 15.4926 24.6976 15.3779 24.5683L21.4872 18.8963C21.6006 19.0243 21.7152 19.1536 21.8312 19.2816Z" fill="#F6EE3E"/>
<path d="M21.4873 18.8963L15.378 24.5683C15.2646 24.4403 15.15 24.3123 15.0366 24.1856L21.1433 18.5123C21.258 18.6403 21.3726 18.7683 21.4873 18.8963Z" fill="#F6EE3B"/>
<path d="M21.1433 18.5123L15.0366 24.1856C14.8913 24.0256 14.7486 23.8657 14.606 23.7057L20.7139 18.0337C20.8566 18.1923 20.9993 18.3523 21.1433 18.5123Z" fill="#F6ED36"/>
<path d="M20.714 18.0336L14.606 23.7056C14.4513 23.5323 14.298 23.3589 14.1447 23.1869L20.2526 17.5149C20.406 17.6869 20.5593 17.8603 20.714 18.0336Z" fill="#F6EC32"/>
<path d="M20.2526 17.5149L14.1446 23.187C13.9913 23.015 13.8379 22.8443 13.6873 22.6736L19.7953 17.0003C19.9459 17.171 20.0993 17.3429 20.2526 17.5149Z" fill="#F6EA2C"/>
<path d="M19.7953 17.0003L13.6873 22.6736C13.5367 22.503 13.3847 22.3337 13.2354 22.1643L19.3434 16.4923C19.4927 16.6603 19.6447 16.8297 19.7953 17.0003Z" fill="#F6E725"/>
<path d="M19.3433 16.4923L13.2353 22.1643C13.0339 21.9363 12.8339 21.711 12.6353 21.487L18.7433 15.8137C18.9406 16.039 19.1419 16.2643 19.3433 16.4923Z" fill="#F5E41C"/>
<path d="M18.7433 15.8137L12.6353 21.487C12.418 21.2403 12.202 20.9963 11.9886 20.755L18.098 15.0817C18.3113 15.323 18.526 15.567 18.7433 15.8137Z" fill="#F6E31C"/>
<path d="M18.0979 15.0816L11.9886 20.7549C11.7726 20.5083 11.5579 20.2643 11.3459 20.023L17.4539 14.3497C17.6659 14.591 17.8793 14.8363 18.0979 15.0816Z" fill="#F6E21C"/>
<path d="M17.4539 14.3496L11.3459 20.0229C11.0632 19.7003 10.7846 19.3829 10.5112 19.0683L16.6179 13.3963C16.8925 13.7109 17.1712 14.0283 17.4539 14.3496Z" fill="#F6DF1C"/>
<path d="M16.618 13.3963L10.5113 19.0683C10.234 18.7523 9.96197 18.4403 9.69397 18.1323L15.802 12.459C16.07 12.767 16.342 13.0803 16.618 13.3963Z" fill="#F6DE1C"/>
<path d="M15.8019 12.459L9.69391 18.1323C9.39258 17.7856 9.09793 17.4456 8.80859 17.1096L14.9166 11.4376C15.2059 11.7723 15.5006 12.1123 15.8019 12.459Z" fill="#F7DC1B"/>
<path d="M14.9167 11.4376L8.80869 17.1096C8.51936 16.775 8.23534 16.4456 7.95801 16.1216L14.066 10.4483C14.3433 10.7723 14.6273 11.1016 14.9167 11.4376Z" fill="#F7DB1B"/>
<path d="M14.066 10.4483L7.95796 16.1216C7.68063 15.7989 7.40864 15.4803 7.14331 15.1683L13.2513 9.49626C13.5166 9.80826 13.7873 10.1256 14.066 10.4483Z" fill="#F7DA1B"/>
<path d="M13.2513 9.49627L7.14331 15.1683C6.88331 14.8629 6.62862 14.5643 6.38062 14.2709L12.4886 8.59894C12.738 8.89227 12.9913 9.19094 13.2513 9.49627Z" fill="#F7D91A"/>
<path d="M12.4886 8.59893L6.38056 14.2709C6.13789 13.9829 5.90058 13.7003 5.66858 13.4243L11.7766 7.75225C12.0086 8.02825 12.2459 8.31093 12.4886 8.59893Z" fill="#F8D61A"/>
<path d="M11.7767 7.75225L5.66865 13.4243C5.44199 13.1536 5.22199 12.8896 5.00732 12.6323L11.1153 6.95896C11.33 7.21762 11.55 7.48158 11.7767 7.75225Z" fill="#F9D51A"/>
<path d="M11.1152 6.95896L5.00723 12.6323C4.79389 12.3749 4.58721 12.1243 4.38721 11.8803L10.4952 6.20831C10.6952 6.45231 10.9032 6.70296 11.1152 6.95896Z" fill="#F9D41A"/>
<path d="M10.4953 6.20831L4.38725 11.8803C4.18858 11.639 3.99527 11.4043 3.80994 11.175L9.91791 5.5016C10.1032 5.73093 10.2966 5.96697 10.4953 6.20831Z" fill="#F9D21A"/>
<path d="M9.91787 5.50162L3.8099 11.175C3.62323 10.9457 3.44322 10.723 3.26855 10.5057L9.37656 4.83365C9.55123 5.05098 9.7312 5.27362 9.91787 5.50162Z" fill="#F9D11A"/>
<path d="M9.37665 4.83367L3.26864 10.5057C3.09398 10.2883 2.92464 10.0763 2.76331 9.87098L8.86998 4.19897C9.03265 4.40297 9.20198 4.615 9.37665 4.83367Z" fill="#FACF1B"/>
<path d="M8.86995 4.19891L2.76328 9.87091C2.59928 9.66558 2.44328 9.46558 2.29395 9.27358L8.40195 3.60027C8.55129 3.79361 8.70729 3.99224 8.86995 4.19891Z" fill="#FACD1A"/>
<path d="M8.402 3.60031L2.29399 9.27362C2.13933 9.07495 1.99132 8.88431 1.85132 8.70031L7.96066 3.02694C8.09933 3.21094 8.24733 3.40165 8.402 3.60031Z" fill="#FACC1A"/>
<path d="M7.96062 3.02695L1.85128 8.70032C1.70994 8.51365 1.57528 8.33365 1.44861 8.16431L7.55662 2.49094C7.68328 2.66161 7.81795 2.84161 7.96062 3.02695Z" fill="#FACB1A"/>
<path d="M7.55663 2.49093L1.44862 8.16431C1.31662 7.98431 1.19132 7.81496 1.07532 7.65363L7.18329 1.98162C7.29929 2.14162 7.4233 2.31227 7.55663 2.49093Z" fill="#FAC91A"/>
<path d="M7.18324 1.98162L1.07527 7.65363C0.953935 7.48429 0.843267 7.32431 0.740601 7.17498L6.84858 1.50161C6.94991 1.65094 7.06191 1.81095 7.18324 1.98162Z" fill="#FAC81A"/>
<path d="M6.84864 1.50162L0.740666 7.17499C0.633999 7.01765 0.539313 6.87362 0.453979 6.74029L6.56199 1.06698C6.64599 1.20031 6.74197 1.34562 6.84864 1.50162Z" fill="#FBC51A"/>
<path d="M6.56195 1.06699L0.453939 6.7403C0.357939 6.5883 0.275294 6.45098 0.209961 6.32832L6.31794 0.656311C6.38327 0.777644 6.46595 0.914988 6.56195 1.06699Z" fill="#FBC41A"/>
<path d="M6.31798 0.656303L0.210002 6.32831C0.134002 6.18964 0.0780016 6.07229 0.043335 5.97629L6.15131 0.302982C6.18598 0.398982 6.24198 0.517636 6.31798 0.656303Z" fill="#FBC21A"/>
<path d="M6.15125 0.30295L0.0432783 5.97626C0.0246116 5.92692 0.0126077 5.88296 0.00594105 5.84429C-0.00339228 5.78962 -0.000750358 5.74827 0.0139163 5.72027L6.12059 0.0469601C6.10726 0.0762935 6.10458 0.117619 6.11392 0.172286C6.12058 0.210952 6.13259 0.253616 6.15125 0.30295Z" fill="#FBC11A"/>
<path d="M6.12059 0.0469689L0.013916 5.72028C0.017916 5.71094 0.023265 5.70292 0.0299316 5.69625L6.13794 0.0242476C6.13127 0.0309142 6.12592 0.0389689 6.12059 0.0469689Z" fill="#FBC01A"/>
</g>
<path d="M33.266 31.239C44.9526 43.7484 54.2353 52.7857 53.9953 51.419C53.7553 50.0537 44.082 38.8017 32.394 26.2924C20.702 13.7777 11.418 4.74034 11.658 6.10701C11.8993 7.47234 21.5726 18.7244 33.266 31.239ZM32.2793 25.6457C47.0313 41.4337 59.2366 55.6297 59.5406 57.3537C59.8433 59.0777 48.1313 47.675 33.378 31.887C18.622 16.0924 6.41794 1.89637 6.11394 0.172375C5.80994 -1.55163 17.5233 9.85101 32.2793 25.6457Z" fill="#FBBF1A"/>
<path d="M29.3286 25.1083L33.4833 29.5536C35.4366 31.6443 37.3913 33.7657 37.4407 34.047C37.4887 34.3203 35.686 32.4243 33.8193 30.4269L29.4407 25.7403L29.3286 25.1083ZM29.1727 24.2189L33.1326 28.4563C34.8046 30.2456 36.4287 32.015 36.4687 32.2497C36.51 32.4843 34.8193 30.703 33.2273 29.0003L29.2687 24.7629L29.1727 24.2189ZM33.9886 30.9349L34.0713 31.4137L38.0513 35.6723L37.958 35.1443C40.2793 37.5536 41.858 39.0669 41.7993 38.7349C41.742 38.4123 40.1473 36.5603 38.0727 34.287C39.674 35.9323 40.734 36.9283 40.6953 36.703C40.6473 36.435 39.4007 34.967 37.57 32.939L37.4793 32.4243L33.4993 28.1656L33.5793 28.615L30.9767 25.8283L30.8966 25.379L26.9166 21.1203L26.9953 21.5696L24.8687 19.2909L25.2767 21.611L27.4047 23.8883L27.4886 24.367L31.4687 28.6269L31.3833 28.1483L33.9886 30.9349Z" fill="#FAB925"/>
</svg>
