<svg width="130" height="77" viewBox="0 0 130 77" fill="none" xmlns="http://www.w3.org/2000/svg">
<mask id="mask0_4_8009" style="mask-type:luminance" maskUnits="userSpaceOnUse" x="18" y="6" width="92" height="40">
<path d="M61.4108 23.824C44.2828 29.0613 30.1241 37.2493 22.6374 45.408C21.3654 41.3613 20.0948 37.3133 18.8228 33.2666C26.3081 25.108 40.4681 16.9186 57.5961 11.6826C77.4321 5.61864 95.8108 5.17599 105.575 9.67066C106.847 13.7187 108.119 17.7667 109.391 21.812C99.6254 17.3173 81.2481 17.76 61.4108 23.824Z" fill="white"/>
</mask>
<g mask="url(#mask0_4_8009)">
<path d="M108.072 11.0533L111.887 23.1946C110.692 22.3973 109.295 21.7053 107.719 21.1213L103.903 8.97999C105.479 9.56399 106.876 10.256 108.072 11.0533Z" fill="#FACB1A"/>
<path d="M103.903 8.98L107.719 21.1213C106.371 20.624 104.893 20.204 103.3 19.8653L99.4841 7.72401C101.079 8.06267 102.556 8.48266 103.903 8.98Z" fill="#FACF1A"/>
<path d="M99.4842 7.72401L103.3 19.8654C101.794 19.544 100.183 19.296 98.4802 19.12L94.6642 6.9787C96.3669 7.1547 97.9775 7.40268 99.4842 7.72401Z" fill="#F9D11A"/>
<path d="M94.6641 6.97872L98.4801 19.12C96.7508 18.9413 94.9281 18.8387 93.0215 18.8121L89.2068 6.67071C91.1121 6.69738 92.9361 6.80005 94.6641 6.97872Z" fill="#F9D51A"/>
<path d="M89.2068 6.67069L93.0214 18.812C90.9574 18.7827 88.7974 18.8453 86.5561 18.9973L82.7401 6.85597C84.9814 6.70264 87.1414 6.64269 89.2068 6.67069Z" fill="#F8D81A"/>
<path d="M82.7402 6.85599L86.5562 18.9973C83.9309 19.176 81.1962 19.4787 78.3775 19.912L74.5615 7.76934C77.3815 7.33734 80.1162 7.03333 82.7402 6.85599Z" fill="#F7DB1B"/>
<path d="M74.5615 7.76932L78.3775 19.912C72.9695 20.74 67.2535 22.0373 61.4108 23.824C56.6121 25.2907 52.0481 26.9893 47.7975 28.8547L43.9814 16.7133C48.2321 14.848 52.7975 13.1493 57.5961 11.6827C63.4388 9.89734 69.1548 8.59732 74.5615 7.76932Z" fill="#F6DE1C"/>
<path d="M43.9815 16.7133L47.7975 28.8546C45.2095 29.9893 42.7388 31.1867 40.4028 32.4293L36.5868 20.288C38.9228 19.0453 41.3935 17.848 43.9815 16.7133Z" fill="#F7DB1B"/>
<path d="M36.5868 20.288L40.4028 32.4294C38.3521 33.5214 36.4055 34.6494 34.5748 35.8014L30.7601 23.6601C32.5895 22.5067 34.5361 21.38 36.5868 20.288Z" fill="#F8D81A"/>
<path d="M30.7601 23.66L34.5748 35.8014C32.8668 36.8787 31.2601 37.9774 29.7641 39.0907L25.9495 26.9494C27.4441 25.836 29.0521 24.7374 30.7601 23.66Z" fill="#F9D51A"/>
<path d="M25.9495 26.9493L29.7642 39.0906C28.2855 40.192 26.9162 41.3067 25.6655 42.4293L21.8508 30.288C23.1015 29.1666 24.4708 28.0506 25.9495 26.9493Z" fill="#F9D11A"/>
<path d="M21.8508 30.288L25.6655 42.4293C24.3375 43.62 23.1428 44.8173 22.0948 46.0133L18.2788 33.872C19.3281 32.676 20.5228 31.4787 21.8508 30.288Z" fill="#FACF1A"/>
</g>
<mask id="mask1_4_8009" style="mask-type:luminance" maskUnits="userSpaceOnUse" x="105" y="9" width="12" height="20">
<path d="M109.391 21.812C108.119 17.7667 106.847 13.7187 105.575 9.6707C109.141 11.3134 111.56 13.6134 112.479 16.54L116.295 28.6827C115.376 25.756 112.957 23.4547 109.391 21.812Z" fill="white"/>
</mask>
<g mask="url(#mask1_4_8009)">
<path d="M112.479 16.5401L116.295 28.6814C115.609 26.5014 114.092 24.668 111.887 23.1947L108.072 11.0533C110.276 12.5267 111.793 14.3601 112.479 16.5401Z" fill="#FAC81A"/>
<path d="M108.072 11.0533L111.887 23.1946C110.692 22.3973 109.295 21.7053 107.719 21.1213L103.903 8.97999C105.479 9.56399 106.876 10.256 108.072 11.0533Z" fill="#FACB1A"/>
</g>
<mask id="mask2_4_8009" style="mask-type:luminance" maskUnits="userSpaceOnUse" x="13" y="33" width="10" height="27">
<path d="M17.1708 59.416C17.2054 59.5493 17.2441 59.68 17.2841 59.8107L13.4694 47.6693C13.4281 47.5387 13.3895 47.408 13.3561 47.2747C12.2415 43.0453 14.3308 38.1613 18.8228 33.2667C20.0948 37.3133 21.3654 41.3613 22.6374 45.408C18.1454 50.304 16.0561 55.188 17.1708 59.416Z" fill="white"/>
</mask>
<g mask="url(#mask2_4_8009)">
<path d="M21.8507 30.288L25.6653 42.4293C24.3373 43.62 23.1427 44.8173 22.0947 46.0133L18.2787 33.872C19.328 32.676 20.5227 31.4787 21.8507 30.288Z" fill="#FACF1A"/>
<path d="M18.2787 33.872L22.0947 46.0133C20.8654 47.4133 19.8374 48.812 19.0267 50.1907L15.2107 38.048C16.0227 36.6694 17.0507 35.272 18.2787 33.872Z" fill="#FACB1A"/>
<path d="M15.2107 38.048L19.0267 50.1907C17.1214 53.4307 16.4214 56.572 17.1707 59.416C17.2054 59.5493 17.2441 59.6814 17.2841 59.812L13.4694 47.6707C13.4281 47.5387 13.3894 47.408 13.3561 47.2747C12.6067 44.4307 13.3054 41.2907 15.2107 38.048Z" fill="#FAC81A"/>
</g>
<path d="M60.4322 15.1133C34.6588 22.056 12.5762 36.092 12.9535 47.052C13.3788 59.4213 41.3308 61.6333 72.6068 51.3747C101.224 41.988 117.514 26.8813 111.723 17.872C106.507 9.75866 84.4055 8.65733 60.4322 15.1133Z" fill="#ECAF17"/>
<path d="M64.7094 32.5453C69.2881 31.1453 73.9347 30.044 74.5441 32.3586C75.1387 34.6186 70.9881 36.2666 66.6121 37.6053L56.3507 40.7427L54.9747 35.5213L64.7094 32.5453Z" fill="#C78518"/>
<path d="M84.7601 29.3533C86.0054 33.312 79.4641 36.4414 76.7507 37.7014L79.3814 46.1027C82.0827 44.86 88.4494 41.804 87.2054 37.852L84.7601 29.3533Z" fill="#C78518"/>
<path d="M52.2894 45.588L53.7508 51.0787L48.7521 52.6067L47.2908 47.1174L52.2894 45.588Z" fill="#C78518"/>
<path d="M67.7188 40.8707L69.1934 46.5093L63.0908 48.3746L61.6161 42.7373L67.7188 40.8707Z" fill="#C78518"/>
<path d="M62.6575 46.6907L63.8828 51.0934L54.5561 53.9454L53.3308 49.5413L62.6575 46.6907Z" fill="#E19316"/>
<path d="M78.0855 41.9734L79.4735 46.0667L69.8308 49.048L68.7601 44.824L78.0855 41.9734Z" fill="#E19316"/>
<path d="M62.3202 25.34L53.0415 28.1773L54.2242 32.6733L63.5042 29.8373C67.2322 28.6973 71.1348 27.184 70.6228 25.244C70.1135 23.3093 66.2402 24.1427 62.3202 25.34Z" fill="#C78518"/>
<path d="M68.3548 52.532C95.7588 44.1534 115.564 28.2174 112.593 16.9347C109.623 5.65736 85.0001 3.30401 57.5961 11.6827C30.1908 20.0613 10.3855 35.9973 13.3561 47.2747C16.3268 58.5573 40.9495 60.9107 68.3548 52.532ZM56.1868 6.33333C90.7601 -4.23734 121.84 -1.27201 125.588 12.9613C129.337 27.2 104.336 47.312 69.7628 57.8814C35.1895 68.452 4.12146 65.4827 0.372127 51.244C-3.37587 37.012 21.6121 16.9027 56.1868 6.33333Z" fill="#F9D11A"/>
<path d="M53.0415 28.1773L54.2242 32.6734L63.5041 29.8374C67.2321 28.6974 71.1348 27.184 70.6228 25.244C70.1135 23.3093 66.2401 24.1427 62.3201 25.34L53.0415 28.1773ZM66.6122 37.6053C70.9882 36.2667 75.1388 34.6186 74.5442 32.3586C73.9348 30.044 69.2882 31.1454 64.7095 32.5454L54.9748 35.5213L56.3508 40.7427L66.6122 37.6053ZM75.0775 27.4014C80.0562 26.488 84.0975 26.8253 84.7975 29.4853C85.5215 32.2347 82.2161 35.176 76.9361 37.6053L78.0855 41.9734L68.7602 44.824L67.7188 40.8707L61.6161 42.7374L62.6575 46.6907L53.3308 49.5413L52.2895 45.588L47.2908 47.1174L42.2468 27.964L47.2455 26.4347L46.2681 22.724L55.5948 19.872L56.5722 23.5827L62.6735 21.7187L61.6962 18.0067L71.0228 15.1547L72.1415 19.404C76.5682 18.7974 79.7948 19.2934 80.3788 21.5094C80.8668 23.3654 78.6815 25.5427 75.0775 27.4014Z" fill="#FCCB26"/>
<mask id="mask3_4_8009" style="mask-type:luminance" maskUnits="userSpaceOnUse" x="0" y="12" width="130" height="65">
<path d="M125.444 12.464L129.26 24.6053C129.312 24.7693 129.359 24.936 129.404 25.1026C133.153 39.3413 108.152 59.452 73.5788 70.0226C39.4121 80.468 8.67079 77.692 4.33079 63.884L0.516113 51.7427C4.85478 65.5507 35.5975 68.3267 69.7628 57.8813C104.336 47.312 129.337 27.2 125.588 12.9613C125.544 12.7946 125.496 12.628 125.444 12.464Z" fill="white"/>
</mask>
<g mask="url(#mask3_4_8009)">
<path d="M125.444 12.464L129.26 24.6053C129.312 24.7693 129.359 24.936 129.404 25.1027C130.349 28.6947 129.467 32.66 127.061 36.752L123.245 24.6107C125.651 20.5187 126.533 16.5533 125.588 12.9613C125.544 12.7947 125.496 12.628 125.444 12.464Z" fill="#FACF26"/>
<path d="M123.245 24.6107L127.061 36.752C126.037 38.492 124.74 40.2546 123.189 42.0226L119.373 29.8814C120.924 28.1134 122.223 26.3507 123.245 24.6107Z" fill="#FAD126"/>
<path d="M119.373 29.8813L123.189 42.0226C121.865 43.5319 120.359 45.044 118.683 46.5466L114.867 34.4053C116.543 32.9026 118.051 31.3907 119.373 29.8813Z" fill="#F9D525"/>
<path d="M114.867 34.4054L118.683 46.5467C117.104 47.9627 115.375 49.3693 113.509 50.7587L109.693 38.6187C111.559 37.228 113.288 35.8214 114.867 34.4054Z" fill="#F8D726"/>
<path d="M109.693 38.6187L113.509 50.7587C111.621 52.164 109.595 53.552 107.439 54.9094L103.623 42.768C105.779 41.4107 107.807 40.0227 109.693 38.6187Z" fill="#F8DA26"/>
<path d="M103.623 42.768L107.439 54.9094C105.129 56.3654 102.672 57.788 100.084 59.1654L96.2694 47.024C98.8574 45.6467 101.313 44.224 103.623 42.768Z" fill="#F7DC26"/>
<path d="M96.2695 47.024L100.084 59.1654C97.1362 60.7347 94.0188 62.244 90.7548 63.676L86.9388 51.5347C90.2042 50.1027 93.3215 48.5933 96.2695 47.024Z" fill="#F6E026"/>
<path d="M86.9388 51.5347L90.7548 63.676C85.3908 66.0293 79.6321 68.172 73.5788 70.0226C66.2081 72.276 58.9974 73.9133 52.1761 74.9586L48.3601 62.8174C55.1814 61.7734 62.3921 60.1347 69.7628 57.8813C75.8161 56.0307 81.5761 53.888 86.9388 51.5347Z" fill="#F8E734"/>
<path d="M48.3601 62.8174L52.1761 74.9587C48.6201 75.504 45.1707 75.8867 41.8601 76.1121L38.0454 63.9707C41.3561 63.7454 44.8054 63.3614 48.3601 62.8174Z" fill="#F6E026"/>
<path d="M38.0454 63.9707L41.8601 76.112C39.0334 76.304 36.3081 76.3814 33.7041 76.3454L29.8881 64.204C32.4921 64.24 35.2187 64.1627 38.0454 63.9707Z" fill="#F7DC26"/>
<path d="M29.8881 64.204L33.7041 76.3453C31.3001 76.312 28.9988 76.1813 26.8175 75.9573L23.0015 63.816C25.1841 64.04 27.4841 64.1707 29.8881 64.204Z" fill="#F8DA26"/>
<path d="M23.0015 63.816L26.8175 75.9573C24.6695 75.7347 22.6362 75.4214 20.7362 75.0174L16.9202 62.876C18.8215 63.28 20.8548 63.5933 23.0015 63.816Z" fill="#F8D726"/>
<path d="M16.9201 62.876L20.7361 75.0173C18.7241 74.5893 16.8601 74.06 15.1601 73.4306L11.3441 61.2893C13.0441 61.9186 14.9094 62.448 16.9201 62.876Z" fill="#F9D525"/>
<path d="M11.3441 61.2893L15.1601 73.4307C13.1708 72.6947 11.4068 71.8214 9.89744 70.8134L6.08142 58.672C7.59075 59.6787 9.35477 60.552 11.3441 61.2893Z" fill="#FAD126"/>
<path d="M6.08145 58.672L9.89746 70.8134C7.11346 68.9547 5.19746 66.6387 4.33079 63.8841L0.516113 51.7427C1.38145 54.4974 3.29745 56.812 6.08145 58.672Z" fill="#FACF26"/>
</g>
</svg>
