<svg width="108" height="94" viewBox="0 0 108 94" fill="none" xmlns="http://www.w3.org/2000/svg">
<mask id="mask0_4_8008" style="mask-type:luminance" maskUnits="userSpaceOnUse" x="34" y="55" width="54" height="30">
<path d="M83.7537 55.0654C85.1577 57.4894 86.5617 59.9147 87.9644 62.3387C76.667 76.9269 56.4297 86.5159 38.867 84.6278L34.6564 77.355C52.2204 79.2425 72.4564 69.6534 83.7537 55.0654Z" fill="white"/>
</mask>
<g mask="url(#mask0_4_8008)">
<path d="M38.867 84.6278L34.6564 77.355C34.6844 77.3575 34.7124 77.3611 34.7404 77.3638L38.951 84.6373C38.923 84.6346 38.895 84.6305 38.867 84.6278Z" fill="#FACB1A"/>
<path d="M38.951 84.6373L34.7404 77.3638C35.239 77.416 35.739 77.4602 36.2417 77.4935L40.4524 84.7669C39.9497 84.7335 39.4497 84.6893 38.951 84.6373Z" fill="#FACD1A"/>
<path d="M40.4524 84.7669L36.2417 77.4935C36.7444 77.5278 37.2484 77.5518 37.755 77.5695L41.9644 84.843C41.4591 84.8253 40.955 84.8013 40.4524 84.7669Z" fill="#FACF1B"/>
<path d="M41.9643 84.843L37.755 77.5695C38.2923 77.5867 38.8323 77.5935 39.375 77.5909L43.5843 84.8638C43.043 84.8669 42.503 84.8602 41.9643 84.843Z" fill="#F9D11A"/>
<path d="M43.5843 84.8638L39.375 77.5909C39.915 77.5883 40.4577 77.5758 41.0004 77.5518L45.2097 84.8253C44.667 84.8493 44.1243 84.8611 43.5843 84.8638Z" fill="#F9D41A"/>
<path d="M45.2097 84.8253L41.0004 77.5518C41.5244 77.5321 42.0497 77.5002 42.5763 77.4611L46.787 84.7346C46.2604 84.7731 45.735 84.8054 45.2097 84.8253Z" fill="#F8D61A"/>
<path d="M46.7871 84.7346L42.5764 77.4611C43.1017 77.4217 43.6284 77.3721 44.1551 77.3159L48.3644 84.5893C47.8378 84.6455 47.3124 84.6945 46.7871 84.7346Z" fill="#F7D91A"/>
<path d="M48.3644 84.5893L44.155 77.3159C44.6657 77.2602 45.1764 77.1971 45.687 77.1253L49.8977 84.3987C49.3857 84.4706 48.875 84.5335 48.3644 84.5893Z" fill="#F7DB1B"/>
<path d="M49.8977 84.3987L45.687 77.1253C46.199 77.055 46.7097 76.9747 47.2217 76.8867L51.431 84.1602C50.919 84.2482 50.4084 84.3269 49.8977 84.3987Z" fill="#F7DC1B"/>
<path d="M51.431 84.1602L47.2217 76.8867C47.7257 76.8013 48.231 76.7065 48.735 76.6054L52.9457 83.8789C52.4403 83.9799 51.9364 84.0747 51.431 84.1602Z" fill="#F6DF1C"/>
<path d="M52.9458 83.8789L48.7351 76.6054C49.2404 76.5039 49.7444 76.3945 50.2484 76.2774L54.4578 83.5507C53.9551 83.6679 53.4511 83.7774 52.9458 83.8789Z" fill="#F6E21C"/>
<path d="M54.4576 83.5507L50.2483 76.2774C50.759 76.1602 51.2683 76.0335 51.7763 75.9013L55.987 83.1747C55.4776 83.3081 54.9683 83.4335 54.4576 83.5507Z" fill="#F5E41C"/>
<path d="M55.987 83.1747L51.7764 75.9013C52.287 75.7679 52.7951 75.6278 53.3031 75.4789L57.5137 82.7534C57.0057 82.9013 56.4964 83.0414 55.987 83.1747Z" fill="#F6EC32"/>
<path d="M57.5136 82.7534L53.303 75.4789C53.8456 75.3211 54.387 75.1545 54.9256 74.9799L59.135 82.255C58.5963 82.4278 58.0563 82.5945 57.5136 82.7534Z" fill="#F6EF40"/>
<path d="M59.135 82.255L54.9257 74.9799C55.4737 74.8029 56.0203 74.6174 56.5657 74.4217L60.775 81.6961C60.231 81.8893 59.683 82.0758 59.135 82.255Z" fill="#F6F04B"/>
<path d="M60.775 81.6961L56.5657 74.4217C57.2057 74.1945 57.8457 73.955 58.479 73.7029L62.6883 80.9774C62.055 81.2278 61.4163 81.4679 60.775 81.6961Z" fill="#F6F256"/>
<path d="M62.6883 80.9774L58.479 73.7029C59.2003 73.4185 59.9164 73.1185 60.6284 72.8054L64.839 80.0789C64.127 80.3919 63.4097 80.692 62.6883 80.9774Z" fill="#F6F460"/>
<path d="M64.8391 80.0789L60.6284 72.8054C61.6738 72.3455 62.7071 71.8575 63.7284 71.3387L67.9378 78.6122C66.9164 79.1294 65.8831 79.6201 64.8391 80.0789Z" fill="#F8F467"/>
<path d="M67.9377 78.6122L63.7284 71.3387C65.7444 70.3149 67.7124 69.1799 69.6084 67.9441L73.8177 75.2174C71.9217 76.4534 69.9551 77.5883 67.9377 78.6122Z" fill="#F8F470"/>
<path d="M73.8177 75.2174L69.6084 67.9441C70.5657 67.3201 71.5044 66.6706 72.4231 65.9961L76.6338 73.2695C75.7151 73.9441 74.7751 74.5935 73.8177 75.2174Z" fill="#F8F467"/>
<path d="M76.6337 73.2695L72.423 65.9961C73.0763 65.5185 73.719 65.0278 74.3496 64.5253L78.5603 71.7987C77.9283 72.3013 77.287 72.7919 76.6337 73.2695Z" fill="#F6F460"/>
<path d="M78.5604 71.7987L74.3497 64.5253C74.8457 64.1321 75.3337 63.7305 75.8137 63.3226L80.0231 70.5945C79.5431 71.0039 79.0551 71.4054 78.5604 71.7987Z" fill="#F6F256"/>
<path d="M80.0231 70.5945L75.8137 63.3226C76.2751 62.9305 76.7311 62.5335 77.1777 62.1278L81.3884 69.4013C80.9404 69.8065 80.4844 70.2039 80.0231 70.5945Z" fill="#F6F04B"/>
<path d="M81.3884 69.4013L77.1777 62.1278C77.5871 61.7575 77.9911 61.3826 78.3884 61.0029L82.5978 68.2774C82.2004 68.6559 81.7964 69.0321 81.3884 69.4013Z" fill="#F6EF40"/>
<path d="M82.5976 68.2774L78.3883 61.0029C78.779 60.6307 79.163 60.2521 79.5416 59.8681L83.751 67.143C83.3723 67.5253 82.9883 67.9039 82.5976 68.2774Z" fill="#F6EC32"/>
<path d="M83.751 67.143L79.5416 59.8681C79.9043 59.5001 80.2643 59.1267 80.6163 58.7494L84.827 66.0226C84.4736 66.4002 84.1163 66.7731 83.751 67.143Z" fill="#F5E41C"/>
<path d="M84.827 66.0226L80.6163 58.7494C80.9683 58.3707 81.315 57.9894 81.655 57.6041L85.8657 64.8763C85.5243 65.2627 85.179 65.6441 84.827 66.0226Z" fill="#F6E21C"/>
<path d="M85.8657 64.8763L81.655 57.6041C81.9964 57.2174 82.331 56.8267 82.6577 56.4321L86.867 63.7054C86.5404 64.1002 86.2057 64.4909 85.8657 64.8763Z" fill="#F6DF1C"/>
<path d="M86.8671 63.7054L82.6577 56.4321C82.9857 56.0374 83.307 55.6387 83.623 55.2347L87.8337 62.5081C87.5177 62.9122 87.1964 63.3107 86.8671 63.7054Z" fill="#F7DC1B"/>
<path d="M87.8337 62.5081L83.623 55.2347C83.9457 54.8214 84.2604 54.4054 84.5684 53.984L88.779 61.2575C88.4697 61.6789 88.1551 62.0945 87.8337 62.5081Z" fill="#F7DB1B"/>
</g>
<mask id="mask1_4_8008" style="mask-type:luminance" maskUnits="userSpaceOnUse" x="83" y="33" width="14" height="30">
<path d="M88.655 47.2828C90.979 42.5801 92.1537 37.9868 92.287 33.7094C93.6897 36.1348 95.0937 38.5588 96.4963 40.9828C96.363 45.2601 95.1883 49.8534 92.8657 54.5561C91.523 57.2721 89.871 59.8761 87.9643 62.3387C86.5617 59.9147 85.1577 57.4894 83.7537 55.0654C85.6617 52.6028 87.3137 49.9988 88.655 47.2828Z" fill="white"/>
</mask>
<g mask="url(#mask1_4_8008)">
<path d="M87.8337 62.5081L83.623 55.2347C83.9457 54.8214 84.2604 54.4054 84.5684 53.9841L88.779 61.2575C88.4697 61.6789 88.1551 62.0945 87.8337 62.5081Z" fill="#F7DB1B"/>
<path d="M88.779 61.2575L84.5684 53.9841C84.8764 53.5641 85.1777 53.1401 85.4697 52.7094L89.6803 59.9827C89.387 60.4134 89.0857 60.8374 88.779 61.2575Z" fill="#F7D91A"/>
<path d="M89.6804 59.9827L85.4697 52.7094C85.7737 52.2654 86.0684 51.8174 86.355 51.3667L90.5671 58.6401C90.2791 59.0907 89.983 59.5387 89.6804 59.9827Z" fill="#F8D61A"/>
<path d="M90.567 58.6401L86.355 51.3667C86.6403 50.9174 86.9176 50.4627 87.1856 50.0054L91.3963 57.2787C91.127 57.7361 90.851 58.1894 90.567 58.6401Z" fill="#F9D41A"/>
<path d="M91.3963 57.2787L87.1857 50.0054C87.431 49.5881 87.667 49.1694 87.8963 48.7481L92.107 56.0214C91.8763 56.4427 91.6403 56.8627 91.3963 57.2787Z" fill="#F9D11A"/>
<path d="M92.107 56.0214L87.8964 48.7481C88.1257 48.3254 88.347 47.9001 88.5617 47.4734L92.771 54.7467C92.5577 55.1734 92.3363 55.5987 92.107 56.0214Z" fill="#FACF1B"/>
<path d="M92.771 54.7467L88.5616 47.4734C88.5923 47.4094 88.6243 47.3468 88.655 47.2828C88.891 46.8068 89.115 46.3294 89.327 45.8561L93.5377 53.1294C93.3257 53.6027 93.1016 54.0801 92.8656 54.5561C92.835 54.6201 92.803 54.6827 92.771 54.7467Z" fill="#FACD1A"/>
<path d="M93.5377 53.1294L89.327 45.8561C89.5764 45.2974 89.811 44.7401 90.0284 44.1854L94.2377 51.4587C94.0204 52.0134 93.787 52.5707 93.5377 53.1294Z" fill="#FACB1A"/>
<path d="M94.2377 51.4587L90.0283 44.1854C90.2497 43.6201 90.455 43.0561 90.643 42.4961L94.8523 49.7694C94.6656 50.3294 94.459 50.8934 94.2377 51.4587Z" fill="#FAC81A"/>
<path d="M94.8524 49.7694L90.6431 42.4961C90.8377 41.9201 91.0137 41.3467 91.1737 40.7761L95.3831 48.0494C95.2244 48.6201 95.0471 49.1934 94.8524 49.7694Z" fill="#FBC51A"/>
<path d="M95.383 48.0494L91.1737 40.7761C91.3364 40.1921 91.4817 39.6094 91.6097 39.0334L95.8191 46.3067C95.6911 46.8827 95.547 47.4654 95.383 48.0494Z" fill="#FBC21A"/>
<path d="M95.8191 46.3067L91.6097 39.0334C91.7471 38.4067 91.8631 37.7854 91.9591 37.1694L96.1711 44.4414C96.0738 45.0587 95.9578 45.6801 95.8191 46.3067Z" fill="#FBC01A"/>
<path d="M96.171 44.4414L91.959 37.1694C92.063 36.5094 92.1417 35.8561 92.1977 35.2081L96.407 42.4814C96.351 43.1294 96.2737 43.7827 96.171 44.4414Z" fill="#FBBF1A"/>
<path d="M96.4071 42.4814L92.1978 35.2081C92.2604 34.4961 92.2924 33.7921 92.2978 33.0961L96.5097 40.3694C96.5031 41.0654 96.4697 41.7694 96.4071 42.4814Z" fill="#FABC1A"/>
</g>
<mask id="mask2_4_8008" style="mask-type:luminance" maskUnits="userSpaceOnUse" x="13" y="65" width="26" height="20">
<path d="M13.6617 65.1867C17.4511 71.7335 24.7137 76.2851 34.6564 77.355L38.8671 84.6278C28.9231 83.5586 21.6604 79.0065 17.8724 72.4602C16.6084 70.2774 14.9257 67.3679 13.6617 65.1867Z" fill="white"/>
</mask>
<g mask="url(#mask2_4_8008)">
<path d="M17.8737 72.4611L13.6631 65.1883C14.7738 67.1054 16.1818 68.8534 17.8684 70.3909L22.0777 77.6638C20.3924 76.1269 18.9831 74.3789 17.8737 72.4611Z" fill="#FAB51B"/>
<path d="M22.0777 77.6638L17.8684 70.3909C18.5871 71.0466 19.3564 71.6638 20.1764 72.243L24.3857 79.516C23.5671 78.9373 22.7977 78.3201 22.0777 77.6638Z" fill="#FAB71B"/>
<path d="M24.3857 79.516L20.1764 72.243C20.8217 72.6988 21.4991 73.1278 22.2071 73.5321L26.4164 80.8054C25.7097 80.4013 25.0324 79.9706 24.3857 79.516Z" fill="#FABA1A"/>
<path d="M26.4164 80.8054L22.207 73.5321C22.8177 73.8789 23.451 74.2081 24.1057 74.5159L28.315 81.7893C27.6604 81.4815 27.027 81.1518 26.4164 80.8054Z" fill="#FABC1A"/>
<path d="M28.3151 81.7893L24.1057 74.516C24.6897 74.7893 25.2911 75.0466 25.9097 75.2884L30.1204 82.5612C29.5017 82.3201 28.9004 82.0628 28.3151 81.7893Z" fill="#FBBF1A"/>
<path d="M30.1203 82.5611L25.9097 75.2883C26.479 75.5081 27.0617 75.7149 27.659 75.9054L31.8697 83.1789C31.2724 82.9878 30.6883 82.7815 30.1203 82.5611Z" fill="#FBC01A"/>
<path d="M31.8697 83.1789L27.6591 75.9054C28.2337 76.0883 28.8204 76.2575 29.4204 76.4133L33.6297 83.6867C33.0297 83.5321 32.4431 83.3627 31.8697 83.1789Z" fill="#FBC21A"/>
<path d="M33.6298 83.6868L29.4204 76.4133C29.9924 76.5612 30.5764 76.6972 31.1737 76.8174L35.3831 84.0909C34.7871 83.9695 34.2031 83.8346 33.6298 83.6868Z" fill="#FBC51A"/>
<path d="M35.383 84.0909L31.1737 76.8174C31.7524 76.9346 32.343 77.0398 32.9444 77.1321L37.1537 84.4054C36.5537 84.3133 35.963 84.2081 35.383 84.0909Z" fill="#FAC81A"/>
<path d="M37.1537 84.4054L32.9443 77.1321C33.507 77.2174 34.0777 77.2919 34.6563 77.355L38.867 84.6278C38.287 84.5654 37.7163 84.4909 37.1537 84.4054Z" fill="#FACB1A"/>
</g>
<mask id="mask3_4_8008" style="mask-type:luminance" maskUnits="userSpaceOnUse" x="89" y="21" width="8" height="20">
<path d="M92.2871 33.7094C92.4284 29.1654 91.3951 24.9774 89.3177 21.3867L93.5271 28.6601C95.6058 32.2507 96.6378 36.4387 96.4964 40.9827C96.3484 40.7281 96.1524 40.388 96.0057 40.1347C95.8484 39.864 95.6404 39.504 95.4831 39.2334C95.3217 38.9534 95.1057 38.5801 94.9431 38.2987C94.7777 38.0134 94.5578 37.6334 94.3924 37.3467C94.2271 37.0614 94.0071 36.6814 93.8417 36.3947C93.6791 36.1147 93.4618 35.7414 93.2991 35.4601C93.1431 35.1907 92.9351 34.8294 92.7791 34.5601C92.7031 34.4294 92.6031 34.2561 92.5284 34.1281C92.4564 34.0027 92.3218 33.8507 92.2871 33.7094Z" fill="white"/>
</mask>
<g mask="url(#mask3_4_8008)">
<path d="M96.4071 42.4814L92.1978 35.208C92.2604 34.496 92.2924 33.792 92.2978 33.096L96.5097 40.3694C96.5031 41.0654 96.4697 41.7694 96.4071 42.4814Z" fill="#FABC1A"/>
<path d="M96.5097 40.3694L92.2977 33.0961C92.3044 32.2854 92.2737 31.4854 92.2057 30.7L96.415 37.9734C96.483 38.7587 96.5137 39.5587 96.5097 40.3694Z" fill="#FABA1A"/>
<path d="M96.415 37.9734L92.2056 30.7C92.1163 29.676 91.9643 28.6747 91.751 27.7L95.9617 34.9734C96.175 35.9481 96.3256 36.9494 96.415 37.9734Z" fill="#FAB71B"/>
<path d="M95.9618 34.9734L91.7511 27.7C91.2591 25.4454 90.4417 23.3281 89.3177 21.3867L93.5271 28.6601C94.6511 30.6014 95.4698 32.7187 95.9618 34.9734Z" fill="#FAB51B"/>
</g>
<path d="M74.0697 15.8281C94.4457 18.4734 100.942 35.7467 90.3123 53.4281C80.3643 69.9799 58.0964 82.1669 39.1484 81.5362C19.1604 80.8695 8.53903 66.2346 16.951 47.7534C26.003 27.8667 52.423 13.0187 74.0697 15.8281Z" fill="#F39B16"/>
<path d="M60.8018 34.0681L58.4604 30.7134L63.0404 31.2054L65.3818 34.5614L60.8018 34.0681Z" fill="#C78518"/>
<path d="M65.3817 34.5614L63.0017 31.1241L66.055 24.9427L68.4364 28.3787L65.3817 34.5614Z" fill="#C78518"/>
<path d="M54.8324 39.1467L51.1311 46.6374L58.0804 47.3841C60.8737 47.6854 64.1084 47.5121 65.7057 44.2774C67.3004 41.0507 64.719 40.2094 61.7817 39.8947L54.8324 39.1467ZM52.1684 60.9217C55.4471 61.2731 58.923 61.0321 60.7857 57.2614C62.6884 53.4107 59.503 52.5467 56.0804 52.1801L48.7804 51.3947L44.483 60.0947L52.1684 60.9217ZM65.707 49.9987C68.871 51.3267 70.4097 54.0494 68.219 58.4854C65.9537 63.0706 61.6444 65.7455 56.9177 66.5627L53.315 73.8559L46.3377 73.1054L49.5991 66.5039L45.0191 66.0122L41.7591 72.6133L34.7724 71.8627L38.0337 65.2602L34.2977 64.8602L50.0804 32.9161L53.8164 33.3174L56.8697 27.1361L63.8551 27.8867L60.8017 34.0681L65.3817 34.5614L68.4364 28.3787L75.4124 29.1294L71.911 36.2161C74.5337 37.7027 75.5404 40.2214 73.715 43.9174C72.1857 47.0107 69.131 49.1361 65.707 49.9987Z" fill="#FBCD26"/>
<path d="M68.4364 28.3787L66.0551 24.9427L73.0324 25.6934L75.4124 29.1294L68.4364 28.3787Z" fill="#C78518"/>
<path d="M50.0804 32.9161L47.6978 29.4747L51.4324 29.8761L53.8164 33.3174L50.0804 32.9161Z" fill="#C78518"/>
<path d="M34.2978 64.8602L31.9258 61.4398L47.7084 29.4974L50.0804 32.9161L34.2978 64.8602Z" fill="#C78518"/>
<path d="M53.8165 33.3174L51.4084 29.8254L54.4618 23.6441L56.8698 27.1361L53.8165 33.3174Z" fill="#C78518"/>
<path d="M56.8697 27.1361L54.4617 23.6441L61.4803 24.3801L63.855 27.8867L56.8697 27.1361Z" fill="#C78518"/>
<mask id="mask4_4_8008" style="mask-type:luminance" maskUnits="userSpaceOnUse" x="72" y="0" width="32" height="23">
<path d="M99.2177 15.6467L103.427 22.9214C98.6457 14.6601 89.483 8.92139 76.939 7.57205L72.7284 0.298732C85.2737 1.64673 94.4364 7.38673 99.2177 15.6467Z" fill="white"/>
</mask>
<g mask="url(#mask4_4_8008)">
<path d="M76.939 7.57205L72.7284 0.29873C73.4604 0.376063 74.1804 0.470728 74.8897 0.580061L79.1004 7.85205C78.3911 7.74405 77.671 7.64939 76.939 7.57205Z" fill="#FACB1A"/>
<path d="M79.1003 7.85207L74.8896 0.580078C75.6483 0.696078 76.395 0.826742 77.1257 0.977408L81.3363 8.25073C80.6043 8.10007 79.8577 7.96807 79.1003 7.85207Z" fill="#FAC81A"/>
<path d="M81.3364 8.25072L77.1257 0.977397C77.8777 1.1294 78.6151 1.30006 79.3377 1.48539L83.5484 8.75873C82.8257 8.57339 82.0871 8.40272 81.3364 8.25072Z" fill="#FBC51A"/>
<path d="M83.5484 8.75873L79.3378 1.48539C80.0951 1.68139 80.8364 1.89607 81.5604 2.12807L85.7698 9.40005C85.0458 9.16939 84.3044 8.95473 83.5484 8.75873Z" fill="#FBC21A"/>
<path d="M85.7698 9.40004L81.5604 2.12805C82.3138 2.36805 83.0498 2.62805 83.7671 2.90671L87.9764 10.1801C87.2591 9.90139 86.5231 9.64137 85.7698 9.40004Z" fill="#FBC01A"/>
<path d="M87.9764 10.1801L83.7671 2.90673C84.5484 3.20939 85.3071 3.53473 86.0444 3.8814L90.2537 11.1547C89.5164 10.8094 88.7577 10.4827 87.9764 10.1801Z" fill="#FBBF1A"/>
<path d="M90.2538 11.1547L86.0444 3.88139C86.8711 4.26806 87.6698 4.68405 88.4404 5.12272L92.6498 12.3961C91.8791 11.9574 91.0804 11.5414 90.2538 11.1547Z" fill="#FABC1A"/>
<path d="M92.6498 12.3961L88.4404 5.12274C89.3324 5.63207 90.1858 6.17473 91.0031 6.75073L95.2124 14.0227C94.3964 13.4481 93.5418 12.9054 92.6498 12.3961Z" fill="#FABA1A"/>
<path d="M95.2124 14.0227L91.0031 6.75072C92.0351 7.47739 93.0057 8.25605 93.9124 9.08405L98.123 16.3574C97.215 15.5307 96.2444 14.7507 95.2124 14.0227Z" fill="#FAB71B"/>
<path d="M98.123 16.3574L93.9124 9.08405C96.0404 11.024 97.8164 13.2267 99.2177 15.6467L103.427 22.9214C102.026 20.5001 100.25 18.2974 98.123 16.3574Z" fill="#FAB51B"/>
</g>
<mask id="mask5_4_8008" style="mask-type:luminance" maskUnits="userSpaceOnUse" x="0" y="0" width="77" height="79">
<path d="M7.97237 78.1919L3.76306 70.9185C-1.32494 62.1278 -1.45027 50.4841 4.59639 38.2467C16.3284 14.5014 46.8311 -2.48527 72.7284 0.298733L76.939 7.57206C51.0417 4.78806 20.539 21.7747 8.80704 45.5201C2.76037 57.7574 2.88437 69.4013 7.97237 78.1919Z" fill="white"/>
</mask>
<g mask="url(#mask5_4_8008)">
<path d="M7.97235 78.1919L3.76305 70.9185C2.34438 68.4695 1.31237 65.7977 0.69104 62.9534L4.90172 70.2253C5.52172 73.0706 6.55502 75.7425 7.97235 78.1919Z" fill="#FAB51B"/>
<path d="M4.9017 70.2253L0.691024 62.9534C0.423024 61.7226 0.231019 60.46 0.119019 59.168L4.32836 66.4414C4.44169 67.7335 4.63237 68.9945 4.9017 70.2253Z" fill="#FAB71B"/>
<path d="M4.32835 66.4414L0.119011 59.168C0.0323442 58.176 -0.00764014 57.168 0.0016932 56.144L4.211 63.4184C4.203 64.4414 4.24169 65.4492 4.32835 66.4414Z" fill="#FABA1A"/>
<path d="M4.21102 63.4185L0.00170898 56.1441C0.00837565 55.2654 0.0497012 54.3774 0.127034 53.4774L4.33771 60.7521C4.26038 61.6507 4.21769 62.5387 4.21102 63.4185Z" fill="#FABC1A"/>
<path d="M4.33775 60.752L0.127075 53.4774C0.199075 52.6614 0.297743 51.8374 0.42841 51.0067L4.63775 58.2787C4.50842 59.1107 4.40842 59.9347 4.33775 60.752Z" fill="#FBBF1A"/>
<path d="M4.63769 58.2787L0.428345 51.0067C0.549678 50.228 0.697687 49.444 0.871021 48.6534L5.08167 55.9267C4.907 56.7174 4.76035 57.5014 4.63769 58.2787Z" fill="#FBC01A"/>
<path d="M5.08174 55.9267L0.871094 48.6534C1.03243 47.9254 1.21508 47.1934 1.42174 46.4561L5.63109 53.7294C5.42575 54.4667 5.24174 55.2001 5.08174 55.9267Z" fill="#FBC21A"/>
<path d="M5.63097 53.7294L1.42163 46.4561C1.62163 45.7361 1.8443 45.0121 2.08963 44.2854L6.29897 51.5587C6.05497 52.2854 5.83231 53.0094 5.63097 53.7294Z" fill="#FBC51A"/>
<path d="M6.29906 51.5587L2.08972 44.2854C2.32706 43.5787 2.58573 42.8667 2.86573 42.1547L7.07504 49.4281C6.79504 50.1414 6.53773 50.852 6.29906 51.5587Z" fill="#FAC81A"/>
<path d="M7.07503 49.4281L2.86572 42.1547C3.14039 41.4547 3.43371 40.7534 3.74971 40.0467L7.95905 47.3201C7.64438 48.0267 7.3497 48.7281 7.07503 49.4281Z" fill="#FACB1A"/>
<path d="M7.9591 47.32L3.74976 40.0467C4.01642 39.448 4.2991 38.848 4.59644 38.2467C4.63644 38.1667 4.67642 38.088 4.71642 38.0067L8.92577 45.28C8.88577 45.3614 8.84708 45.44 8.80708 45.52C8.50975 46.1214 8.2271 46.7214 7.9591 47.32Z" fill="#FACD1A"/>
<path d="M8.92565 45.2801L4.71631 38.0067C4.98564 37.4667 5.26565 36.9294 5.55632 36.3974L9.76566 43.6694C9.47632 44.2027 9.19632 44.7401 8.92565 45.2801Z" fill="#FACF1B"/>
<path d="M9.76574 43.6694L5.5564 36.3974C5.84573 35.8641 6.14439 35.3334 6.45239 34.8094L10.6631 42.0827C10.3537 42.6067 10.0551 43.1374 9.76574 43.6694Z" fill="#F9D11A"/>
<path d="M10.6631 42.0827L6.45239 34.8094C6.79106 34.2307 7.14174 33.6574 7.50174 33.0881L11.7111 40.3627C11.3511 40.9307 11.0017 41.5041 10.6631 42.0827Z" fill="#F9D41A"/>
<path d="M11.711 40.3627L7.50171 33.0881C7.86304 32.5187 8.23636 31.9534 8.62036 31.3921L12.8297 38.6654C12.4457 39.2267 12.0737 39.7921 11.711 40.3627Z" fill="#F8D61A"/>
<path d="M12.8297 38.6654L8.62036 31.3921C8.98969 30.8507 9.3697 30.3134 9.75903 29.7827L13.9684 37.0561C13.579 37.5881 13.199 38.1241 12.8297 38.6654Z" fill="#F7D91A"/>
<path d="M13.9684 37.0561L9.75903 29.7827C10.147 29.2521 10.5444 28.7254 10.9524 28.2041L15.1617 35.4774C14.755 35.9987 14.3564 36.5254 13.9684 37.0561Z" fill="#F7DB1B"/>
<path d="M15.1617 35.4774L10.9524 28.204C11.3497 27.696 11.7551 27.1921 12.1697 26.6934L16.3791 33.9667C15.9657 34.4654 15.5591 34.9694 15.1617 35.4774Z" fill="#F7DC1B"/>
<path d="M16.379 33.9667L12.1697 26.6934C12.583 26.196 13.0057 25.7027 13.435 25.2147L17.6443 32.488C17.215 32.9774 16.7923 33.4694 16.379 33.9667Z" fill="#F6DF1C"/>
<path d="M17.6444 32.4881L13.4351 25.2147C13.8657 24.7267 14.3044 24.2427 14.751 23.7641L18.9617 31.0374C18.5137 31.5161 18.075 32.0001 17.6444 32.4881Z" fill="#F6E21C"/>
<path d="M18.9617 31.0374L14.751 23.7641C15.199 23.2854 15.6523 22.8121 16.115 22.3441L20.3257 29.6174C19.863 30.0854 19.4083 30.5587 18.9617 31.0374Z" fill="#F5E41C"/>
<path d="M20.3257 29.6174L16.115 22.344C16.5923 21.8627 17.0763 21.3854 17.5683 20.9147L21.779 28.188C21.287 28.6587 20.8017 29.136 20.3257 29.6174Z" fill="#F6EC32"/>
<path d="M21.779 28.188L17.5684 20.9147C18.067 20.4374 18.5737 19.968 19.0883 19.504L23.2977 26.7774C22.7844 27.2414 22.2777 27.7107 21.779 28.188Z" fill="#F6EF40"/>
<path d="M23.2977 26.7774L19.0884 19.5041C19.6524 18.9934 20.2244 18.4921 20.8057 17.9987L25.015 25.2721C24.4337 25.7654 23.8617 26.2667 23.2977 26.7774Z" fill="#F6F04B"/>
<path d="M25.015 25.2721L20.8057 17.9987C21.4123 17.4841 22.0283 16.9787 22.6523 16.4814L26.8617 23.7547C26.2377 24.2534 25.623 24.7574 25.015 25.2721Z" fill="#F6F256"/>
<path d="M26.8617 23.7547L22.6523 16.4814C23.4483 15.8481 24.259 15.2294 25.083 14.6254L29.2923 21.8987C28.4683 22.5027 27.6577 23.1214 26.8617 23.7547Z" fill="#F6F460"/>
<path d="M29.2924 21.8987L25.083 14.6254C26.2417 13.7747 27.427 12.956 28.6337 12.1694L32.8443 19.4427C31.6363 20.2294 30.4524 21.048 29.2924 21.8987Z" fill="#F8F467"/>
<path d="M32.8443 19.4427L28.6337 12.1694C31.027 10.6094 33.507 9.17871 36.051 7.88671L40.2617 15.1601C37.7163 16.4521 35.2363 17.8827 32.8443 19.4427Z" fill="#F8F470"/>
<path d="M40.2617 15.1601L36.051 7.88673C37.339 7.23339 38.643 6.61606 39.9604 6.03606L44.171 13.3107C42.8537 13.8894 41.5497 14.5067 40.2617 15.1601Z" fill="#F8F467"/>
<path d="M44.171 13.3107L39.9603 6.03606C40.859 5.64139 41.763 5.26272 42.6723 4.90406L46.883 12.1774C45.9736 12.5361 45.0683 12.9147 44.171 13.3107Z" fill="#F6F460"/>
<path d="M46.883 12.1774L42.6724 4.90406C43.4737 4.58806 44.279 4.2854 45.087 3.99607L49.2964 11.2694C48.4884 11.5574 47.683 11.8614 46.883 12.1774Z" fill="#F6F256"/>
<path d="M49.2964 11.2694L45.087 3.99606C45.7737 3.75206 46.463 3.51739 47.155 3.29339L51.3657 10.5667C50.6737 10.7907 49.9844 11.0254 49.2964 11.2694Z" fill="#F6F04B"/>
<path d="M51.3657 10.5667L47.155 3.29339C47.8364 3.07339 48.5177 2.86406 49.2017 2.66406L53.411 9.93738C52.7284 10.1374 52.0457 10.3467 51.3657 10.5667Z" fill="#F6EF40"/>
<path d="M53.411 9.93738L49.2017 2.66405C49.843 2.47739 50.4843 2.30006 51.127 2.13206L55.3377 9.40538C54.6937 9.57338 54.0523 9.75071 53.411 9.93738Z" fill="#F6EC32"/>
<path d="M55.3378 9.4054L51.1271 2.13207C51.7697 1.96407 52.4124 1.8054 53.0564 1.65606L57.2657 8.9294C56.6231 9.07874 55.9791 9.2374 55.3378 9.4054Z" fill="#F5E41C"/>
<path d="M57.2657 8.92941L53.0564 1.65607C53.6911 1.50941 54.3271 1.37074 54.9631 1.24408L59.175 8.5174C58.5377 8.64407 57.9017 8.78275 57.2657 8.92941Z" fill="#F6E21C"/>
<path d="M59.175 8.51736L54.963 1.24404C55.6003 1.11471 56.2377 0.996035 56.875 0.888035L61.0843 8.16137C60.4483 8.26937 59.811 8.38803 59.175 8.51736Z" fill="#F6DF1C"/>
<path d="M61.0843 8.16141L56.875 0.888067C57.519 0.777401 58.1657 0.677401 58.8097 0.588067L63.019 7.86141C62.375 7.95074 61.731 8.05074 61.0843 8.16141Z" fill="#F7DC1B"/>
<path d="M63.019 7.86139L58.8097 0.58805C59.455 0.49605 60.099 0.417392 60.743 0.346725L64.9537 7.62005C64.3084 7.69071 63.6644 7.76939 63.019 7.86139Z" fill="#F7DB1B"/>
<path d="M64.9537 7.62006L60.743 0.346732C61.407 0.274732 62.0711 0.2134 62.7351 0.164066L66.9457 7.43739C66.2817 7.48672 65.6177 7.54806 64.9537 7.62006Z" fill="#F7D91A"/>
<path d="M66.9456 7.43738L62.735 0.164055C63.399 0.114721 64.063 0.0760555 64.7243 0.0480555L68.9337 7.32138C68.2723 7.34938 67.6096 7.38671 66.9456 7.43738Z" fill="#F8D61A"/>
<path d="M68.9337 7.32138L64.7244 0.0480575C65.4084 0.0200575 66.0937 0.00404316 66.775 4.3161e-05L70.9857 7.27338C70.303 7.27738 69.619 7.29338 68.9337 7.32138Z" fill="#F9D41A"/>
<path d="M70.9857 7.2734L66.775 5.65854e-05C67.4577 -0.00261008 68.1404 0.00540099 68.819 0.0280677L73.0297 7.30139C72.3497 7.27872 71.6697 7.2694 70.9857 7.2734Z" fill="#F9D11A"/>
<path d="M73.0296 7.30138L68.819 0.0280563C69.4576 0.0480563 70.0936 0.0800511 70.7283 0.122718L74.939 7.39606C74.3043 7.35339 73.6683 7.32138 73.0296 7.30138Z" fill="#FACF1B"/>
<path d="M74.939 7.39606L70.7284 0.122722C71.3617 0.166722 71.9937 0.221386 72.6231 0.286719L76.8324 7.56006C76.2031 7.49339 75.571 7.43873 74.939 7.39606Z" fill="#FACD1A"/>
<path d="M76.8324 7.56006L72.623 0.286716C72.6577 0.290716 72.6924 0.294728 72.7284 0.298728L76.939 7.57205C76.903 7.56805 76.8684 7.56406 76.8324 7.56006Z" fill="#FACB1A"/>
</g>
<path d="M38.8671 84.6278C59.3951 86.8346 83.5725 73.3638 92.8658 54.556C102.162 35.7414 93.0578 18.7 72.5298 16.4934C52.0031 14.2867 27.8285 27.7507 18.5325 46.5654C9.23914 65.3721 18.3405 82.4216 38.8671 84.6278ZM76.9391 7.57204C102.836 10.356 114.323 31.856 102.591 55.6014C90.8618 79.3387 60.3605 96.3252 34.4631 93.5414C8.5658 90.7575 -2.92088 69.2575 8.80711 45.52C20.5391 21.7747 51.0418 4.78804 76.9391 7.57204Z" fill="#FAB71B"/>
</svg>
